<svg xmlns="http://www.w3.org/2000/svg" xmlns:xlink="http://www.w3.org/1999/xlink" width="1640" zoomAndPan="magnify" viewBox="0 0 1230 1769.999925" height="2360" preserveAspectRatio="xMidYMid meet" version="1.0"><defs><clipPath id="a74ef496e3"><path d="M 18.050781 687.261719 L 1212.050781 687.261719 L 1212.050781 1082.511719 L 18.050781 1082.511719 Z M 18.050781 687.261719 " clip-rule="nonzero"/></clipPath></defs><g clip-path="url(#a74ef496e3)"><path fill="#ffffff" d="M 1114.371094 886.859375 C 1112.734375 886.859375 1111.097656 886.859375 1109.507812 887.003906 C 1097.753906 834.488281 1050.84375 795.214844 994.730469 795.214844 C 938.621094 795.214844 890.214844 835.691406 879.378906 889.457031 C 872.539062 887.820312 865.457031 886.90625 858.089844 886.90625 C 844.3125 886.90625 831.308594 890.082031 819.652344 895.617188 C 798.316406 854.898438 755.691406 827.125 706.515625 827.125 C 700.15625 827.125 693.945312 827.605469 687.875 828.472656 C 680.503906 749.390625 613.988281 687.539062 532.976562 687.539062 C 482.644531 687.539062 437.902344 711.460938 409.433594 748.523438 C 398.019531 745.15625 385.929688 743.324219 373.40625 743.324219 C 316.816406 743.324219 268.84375 780.148438 252.128906 831.167969 C 241.824219 828.472656 230.984375 827.027344 219.859375 827.027344 C 149.347656 827.027344 92.222656 884.164062 92.222656 954.582031 C 92.222656 963.148438 93.089844 971.523438 94.679688 979.660156 C 87.742188 976.386719 80.039062 974.558594 71.851562 974.558594 C 42.132812 974.558594 18 998.625 18 1028.371094 C 18 1058.117188 42.082031 1082.183594 71.851562 1082.183594 L 1114.371094 1082.183594 C 1168.363281 1082.183594 1212.097656 1038.476562 1212.097656 984.519531 C 1212.097656 930.5625 1168.363281 886.859375 1114.371094 886.859375 Z M 1114.371094 886.859375 " fill-opacity="1" fill-rule="nonzero"/></g></svg>