<svg xmlns="http://www.w3.org/2000/svg" xmlns:xlink="http://www.w3.org/1999/xlink" width="1640" zoomAndPan="magnify" viewBox="0 0 1230 1769.999925" height="2360" preserveAspectRatio="xMidYMid meet" version="1.0"><defs><clipPath id="817ef4eb91"><path d="M 26 644.5625 L 1203 644.5625 L 1203 1125.3125 L 26 1125.3125 Z M 26 644.5625 " clip-rule="nonzero"/></clipPath></defs><g clip-path="url(#817ef4eb91)"><path fill="#ffffff" d="M 1117.53125 954.421875 C 1103.539062 954.421875 1090.320312 957.828125 1078.660156 963.75 C 1065.445312 916.929688 1022.449219 882.605469 971.4375 882.605469 C 962.347656 882.605469 953.5 883.742188 945.007812 885.777344 C 931.550781 818.984375 872.527344 768.699219 801.785156 768.699219 C 775.953125 768.699219 751.671875 775.394531 730.621094 787.175781 C 697.132812 703.640625 615.386719 644.5625 519.824219 644.5625 C 394.363281 644.5625 292.644531 746.273438 292.644531 871.722656 C 292.644531 872.621094 292.644531 873.519531 292.703125 874.414062 C 284.929688 872.742188 276.855469 871.84375 268.542969 871.84375 C 215.261719 871.84375 170.351562 907.722656 156.539062 956.574219 C 144.339844 950.355469 130.585938 946.828125 115.933594 946.828125 C 66.65625 946.828125 26.710938 986.769531 26.710938 1036.039062 C 26.710938 1085.3125 66.65625 1125.253906 115.933594 1125.253906 L 1117.53125 1125.253906 C 1164.714844 1125.253906 1202.988281 1086.984375 1202.988281 1039.808594 C 1202.988281 992.628906 1164.714844 954.359375 1117.53125 954.359375 Z M 1117.53125 954.421875 " fill-opacity="1" fill-rule="nonzero"/></g></svg>