<svg xmlns="http://www.w3.org/2000/svg" xmlns:xlink="http://www.w3.org/1999/xlink" width="1640" zoomAndPan="magnify" viewBox="0 0 1230 1769.999925" height="2360" preserveAspectRatio="xMidYMid meet" version="1.0"><path fill="#ffffff" d="M 1186.582031 1023.234375 C 1185.925781 1024.6875 1185.246094 1026.121094 1184.542969 1027.527344 C 1163.597656 1069.742188 1120.75 1096.738281 1073.726562 1099.410156 C 791.554688 1115.453125 449.464844 1106.683594 166.519531 1086.605469 C 140.722656 1084.777344 116.097656 1074.972656 96.300781 1058.34375 C 68.90625 1035.335938 45.054688 1008.671875 37.480469 974.476562 C 24.957031 918.046875 66.1875 858.332031 121.042969 840.203125 C 166.238281 825.289062 216.523438 835.042969 257.824219 859.460938 C 260.5 776.011719 322.160156 696.386719 403.542969 675.582031 C 468.648438 658.957031 540.769531 681.398438 588.683594 727.910156 C 622.128906 698.894531 661.835938 677.414062 705.199219 669.835938 C 765.921875 659.238281 833.609375 679.640625 870.875 728.753906 C 895.878906 761.726562 903.453125 807.507812 891.9375 846.605469 C 913.5625 842.503906 936.710938 846.136719 955.496094 857.652344 C 974.679688 869.402344 988.589844 888.964844 994.523438 910.632812 C 1029.773438 899.542969 1067.230469 895.296875 1104.097656 898.390625 C 1133.132812 900.832031 1164.070312 909.15625 1181.941406 932.164062 C 1201.523438 957.449219 1199.71875 994.128906 1186.582031 1023.234375 Z M 1186.582031 1023.234375 " fill-opacity="1" fill-rule="nonzero"/><path fill="#ffffff" d="M 1180.179688 921.890625 C 1152.386719 894.875 1107.59375 891.566406 1070.980469 892.878906 C 1046.496094 893.75 1022.222656 897.734375 998.722656 904.558594 C 992.011719 884.742188 979.394531 867.175781 961.828125 855.496094 C 943.371094 843.230469 920.996094 838.726562 899.160156 840.929688 C 905.398438 814.125 903.898438 785.746094 894.234375 759.828125 C 884.199219 732.925781 865.832031 710.269531 842.261719 693.996094 C 794.792969 661.207031 732.851562 654.640625 678.300781 671.550781 C 645.535156 681.703125 615.585938 699.085938 589.269531 720.941406 C 544.097656 679.6875 480.84375 658.460938 419.984375 667.515625 C 360.996094 676.289062 309.9375 715.078125 279.964844 765.832031 C 264.722656 791.632812 255.105469 820.761719 252.59375 850.617188 C 209.863281 828.289062 158.148438 820.339844 112.4375 838.351562 C 71.816406 854.347656 39.050781 892.152344 31.125 935.332031 C 22.234375 983.902344 50.683594 1025.558594 85.511719 1056.28125 C 104.464844 1073.003906 126.273438 1085.058594 151.371094 1089.5625 C 163.683594 1091.765625 176.324219 1092.09375 188.800781 1092.960938 C 202.335938 1093.875 215.84375 1094.769531 229.375 1095.613281 C 339.210938 1102.53125 449.183594 1107.339844 559.203125 1110.035156 C 671.027344 1112.78125 782.925781 1113.414062 894.777344 1110.972656 C 947.921875 1109.824219 1001.066406 1107.972656 1054.164062 1105.179688 C 1077.851562 1103.9375 1100.4375 1102.085938 1122.460938 1092.492188 C 1142.796875 1083.652344 1161.042969 1069.859375 1174.878906 1052.527344 C 1181.753906 1043.945312 1187.453125 1034.445312 1192.046875 1024.453125 C 1206.683594 991.386719 1207.808594 948.769531 1180.179688 921.890625 Z M 1079.378906 1094.300781 C 1055.457031 1096.691406 1031.132812 1096.996094 1007.117188 1098.003906 C 981.460938 1099.082031 955.777344 1099.976562 930.097656 1100.679688 C 823.59375 1103.609375 717.019531 1103.632812 610.519531 1101.664062 C 504.484375 1099.691406 398.5 1095.707031 292.628906 1089.820312 C 267.394531 1088.410156 242.160156 1086.910156 216.945312 1085.269531 C 204.445312 1084.472656 191.945312 1083.628906 179.46875 1082.761719 C 166.988281 1081.890625 154.769531 1080.953125 142.714844 1077.4375 C 118.863281 1070.492188 99.726562 1055.554688 82.394531 1038.292969 C 66 1021.96875 51.644531 1002.691406 45.054688 980.246094 C 32.695312 938.238281 51.597656 893.628906 84.316406 866.332031 C 122.359375 834.574219 174.589844 831.644531 220.136719 847.496094 C 232.097656 851.671875 243.566406 857.207031 254.496094 863.585938 C 257.472656 865.324219 263.5 863.46875 263.640625 859.53125 C 265.660156 804.390625 292.863281 751.433594 335.199219 716.277344 C 356.566406 698.542969 381.707031 685.339844 408.84375 679.148438 C 437.925781 672.511719 468.367188 673.894531 497.074219 681.703125 C 529.746094 690.59375 559.835938 707.832031 584.203125 731.308594 C 586.246094 733.277344 590.324219 733.066406 592.390625 731.285156 C 636.035156 693.667969 691.410156 668.148438 750.019531 672.394531 C 802.367188 676.195312 855.398438 703.9375 878.664062 752.675781 C 892.265625 781.171875 895.199219 815.015625 886.496094 845.386719 C 885.277344 849.609375 889.007812 851.929688 892.921875 851.226562 C 914.429688 847.378906 937.414062 851.34375 955.472656 863.984375 C 971.84375 875.429688 983.359375 892.761719 988.777344 911.878906 C 989.550781 914.574219 992.835938 916.074219 995.484375 915.253906 C 1034.417969 903.175781 1077.054688 898.273438 1117.488281 904.886719 C 1133.929688 907.585938 1150.699219 912.558594 1164.234375 922.644531 C 1178 932.914062 1186.628906 947.714844 1189.5625 964.578125 C 1192.941406 983.972656 1189.023438 1004.144531 1181.117188 1021.96875 C 1162.636719 1062.261719 1123.46875 1089.890625 1079.378906 1094.300781 Z M 1079.378906 1094.300781 " fill-opacity="1" fill-rule="nonzero"/></svg>