<svg xmlns="http://www.w3.org/2000/svg" xmlns:xlink="http://www.w3.org/1999/xlink" width="1640" zoomAndPan="magnify" viewBox="0 0 1230 1769.999925" height="2360" preserveAspectRatio="xMidYMid meet" version="1.0"><defs><clipPath id="51456e75dd"><path d="M 50 483 L 1210 483 L 1210 1107.4375 L 50 1107.4375 Z M 50 483 " clip-rule="nonzero"/></clipPath><clipPath id="c8b99d1070"><path d="M 49 481 L 1212 481 L 1212 1107.4375 L 49 1107.4375 Z M 49 481 " clip-rule="nonzero"/></clipPath><clipPath id="914feb0bb9"><path d="M 19 454 L 1182 454 L 1182 1107.4375 L 19 1107.4375 Z M 19 454 " clip-rule="nonzero"/></clipPath><clipPath id="95d30de874"><path d="M 18.414062 452.726562 L 1183 452.726562 L 1183 1107.4375 L 18.414062 1107.4375 Z M 18.414062 452.726562 " clip-rule="nonzero"/></clipPath><clipPath id="e0f9674dcd"><path d="M 18.414062 452.726562 L 1183 452.726562 L 1183 575 L 18.414062 575 Z M 18.414062 452.726562 " clip-rule="nonzero"/></clipPath><clipPath id="937b9a430b"><path d="M 50 1094.65625 L 1210 1094.65625 L 1210 1316 L 50 1316 Z M 50 1094.65625 " clip-rule="nonzero"/></clipPath><clipPath id="fac51bd4f2"><path d="M 49 1094.65625 L 1212 1094.65625 L 1212 1317.683594 L 49 1317.683594 Z M 49 1094.65625 " clip-rule="nonzero"/></clipPath><clipPath id="4403163618"><path d="M 19 1094.65625 L 1182 1094.65625 L 1182 1290 L 19 1290 Z M 19 1094.65625 " clip-rule="nonzero"/></clipPath><clipPath id="c2fbfb5ef8"><path d="M 18.414062 1094.65625 L 1183 1094.65625 L 1183 1291 L 18.414062 1291 Z M 18.414062 1094.65625 " clip-rule="nonzero"/></clipPath></defs><g clip-path="url(#51456e75dd)"><path fill="#50556e" d="M 1135.101562 483.097656 C 1176.4375 483.097656 1209.941406 516.601562 1209.941406 557.941406 L 1209.941406 1448.75 C 1209.941406 1490.085938 1176.4375 1523.589844 1135.101562 1523.589844 L 125.679688 1523.589844 C 84.339844 1523.589844 50.835938 1490.085938 50.835938 1448.75 L 50.835938 557.941406 C 50.835938 516.601562 84.339844 483.097656 125.679688 483.097656 Z M 1135.101562 483.097656 " fill-opacity="1" fill-rule="nonzero"/></g><g clip-path="url(#c8b99d1070)"><path fill="#50556e" d="M 1135.101562 1524.941406 L 125.679688 1524.941406 C 83.800781 1524.941406 49.488281 1490.898438 49.488281 1448.75 L 49.488281 557.941406 C 49.488281 516.0625 83.53125 481.746094 125.679688 481.746094 L 1135.371094 481.746094 C 1177.25 481.746094 1211.5625 515.789062 1211.5625 557.941406 L 1211.5625 1448.75 C 1211.292969 1490.628906 1177.25 1524.941406 1135.101562 1524.941406 Z M 125.679688 484.71875 C 85.152344 484.71875 52.1875 517.683594 52.1875 558.210938 L 52.1875 1449.019531 C 52.1875 1489.546875 85.152344 1522.507812 125.679688 1522.507812 L 1135.371094 1522.507812 C 1175.898438 1522.507812 1208.863281 1489.546875 1208.863281 1449.019531 L 1208.863281 557.941406 C 1208.863281 517.410156 1175.898438 484.449219 1135.371094 484.449219 L 125.679688 484.449219 Z M 125.679688 484.71875 " fill-opacity="1" fill-rule="nonzero"/></g><g clip-path="url(#914feb0bb9)"><path fill="#ffffff" d="M 19.765625 1420.917969 L 19.765625 530.378906 C 19.765625 488.230469 53.808594 454.1875 95.957031 454.1875 L 1105.648438 454.1875 C 1147.800781 454.1875 1181.84375 488.230469 1181.84375 530.378906 L 1181.84375 1421.1875 C 1181.84375 1463.339844 1147.800781 1497.382812 1105.648438 1497.382812 L 95.957031 1497.382812 C 53.808594 1497.113281 19.765625 1463.066406 19.765625 1420.917969 Z M 19.765625 1420.917969 " fill-opacity="1" fill-rule="nonzero"/></g><g clip-path="url(#95d30de874)"><path fill="#50556e" d="M 1105.378906 1498.464844 L 95.957031 1498.464844 C 53.269531 1498.464844 18.414062 1463.609375 18.414062 1420.917969 L 18.414062 530.378906 C 18.414062 487.691406 53.269531 452.835938 95.957031 452.835938 L 1105.648438 452.835938 C 1148.070312 452.835938 1182.925781 487.691406 1182.925781 530.378906 L 1182.925781 1421.1875 C 1182.925781 1463.609375 1148.070312 1498.464844 1105.378906 1498.464844 Z M 95.957031 455.539062 C 54.621094 455.539062 21.117188 489.042969 21.117188 530.378906 L 21.117188 1421.1875 C 21.117188 1462.257812 54.621094 1495.761719 95.957031 1495.761719 L 1105.648438 1495.761719 C 1146.988281 1495.761719 1180.492188 1462.257812 1180.492188 1420.917969 L 1180.492188 530.378906 C 1180.222656 489.042969 1146.71875 455.539062 1105.378906 455.539062 Z M 95.957031 455.539062 " fill-opacity="1" fill-rule="nonzero"/></g><path fill="#9db0ce" d="M 19.765625 572.800781 L 19.765625 530.652344 C 19.765625 488.5 54.078125 454.1875 96.230469 454.1875 L 1105.378906 454.1875 C 1147.527344 454.1875 1181.84375 488.5 1181.84375 530.652344 L 1181.84375 573.070312 C 1181.84375 573.070312 1181.84375 573.339844 1181.574219 573.339844 L 19.765625 572.800781 C 19.765625 573.070312 19.765625 573.070312 19.765625 572.800781 Z M 19.765625 572.800781 " fill-opacity="1" fill-rule="nonzero"/><g clip-path="url(#e0f9674dcd)"><path fill="#50556e" d="M 1181.300781 574.421875 L 18.683594 574.421875 L 18.414062 572.800781 L 18.414062 530.652344 C 18.414062 487.691406 53.269531 452.835938 96.230469 452.835938 L 1105.378906 452.835938 C 1148.070312 452.835938 1182.925781 487.691406 1182.925781 530.652344 L 1182.925781 574.421875 Z M 21.117188 571.71875 L 1180.222656 571.71875 L 1180.222656 530.652344 C 1180.222656 489.3125 1146.449219 455.539062 1105.109375 455.539062 L 96.230469 455.539062 C 54.890625 455.539062 21.117188 489.3125 21.117188 530.652344 Z M 21.117188 571.71875 " fill-opacity="1" fill-rule="nonzero"/></g><path fill="#50556e" d="M 273.742188 513.628906 C 273.742188 496.878906 287.25 483.367188 304.003906 483.367188 C 320.753906 483.367188 334.265625 496.878906 334.265625 513.628906 C 334.265625 530.378906 320.753906 543.890625 304.003906 543.890625 C 287.25 543.890625 273.742188 530.378906 273.742188 513.628906 Z M 213.492188 544.160156 C 230.242188 544.160156 243.75 530.652344 243.75 513.898438 C 243.75 497.148438 230.242188 483.636719 213.492188 483.636719 C 196.738281 483.636719 183.230469 496.878906 183.230469 513.628906 C 183.230469 530.378906 196.738281 544.160156 213.492188 544.160156 Z M 123.246094 544.160156 C 140 544.160156 153.507812 530.652344 153.507812 513.898438 C 153.507812 497.148438 140 483.636719 123.246094 483.636719 C 106.496094 483.636719 92.988281 497.148438 92.988281 513.898438 C 92.988281 530.652344 106.226562 544.160156 123.246094 544.160156 Z M 123.246094 544.160156 " fill-opacity="1" fill-rule="nonzero"/><path fill="#50556e" d="M 304.273438 545.242188 C 286.710938 545.242188 272.390625 531.191406 272.390625 513.628906 C 272.390625 496.066406 286.710938 481.746094 304.273438 481.746094 C 321.835938 481.746094 336.15625 496.066406 336.15625 513.628906 C 336.15625 531.191406 321.566406 545.242188 304.273438 545.242188 Z M 304.273438 484.71875 C 288.332031 484.71875 275.09375 497.6875 275.09375 513.898438 C 275.09375 530.109375 288.0625 543.078125 304.273438 543.078125 C 320.484375 543.078125 333.453125 530.109375 333.453125 513.898438 C 333.453125 497.6875 320.214844 484.71875 304.273438 484.71875 Z M 213.492188 545.242188 C 195.929688 545.242188 181.609375 530.921875 181.609375 513.359375 C 181.609375 495.796875 195.929688 481.476562 213.492188 481.476562 C 231.054688 481.476562 245.371094 496.066406 245.371094 513.628906 C 245.371094 531.191406 231.054688 545.242188 213.492188 545.242188 Z M 213.492188 484.71875 C 197.550781 484.71875 184.308594 497.6875 184.308594 513.898438 C 184.308594 530.109375 197.277344 543.078125 213.492188 543.078125 C 229.703125 543.078125 242.671875 529.570312 242.671875 513.628906 C 242.671875 497.6875 229.703125 484.71875 213.492188 484.71875 Z M 123.246094 545.242188 C 105.6875 545.242188 91.367188 531.191406 91.367188 513.628906 C 91.367188 496.066406 105.6875 481.746094 123.246094 481.746094 C 140.808594 481.746094 154.859375 496.066406 154.859375 513.628906 C 154.859375 531.191406 140.539062 545.242188 123.246094 545.242188 Z M 123.246094 484.71875 C 107.308594 484.71875 94.066406 497.6875 94.066406 513.898438 C 94.066406 530.109375 107.035156 543.078125 123.246094 543.078125 C 139.460938 543.078125 152.429688 530.109375 152.429688 513.898438 C 152.429688 497.6875 139.1875 484.71875 123.246094 484.71875 Z M 123.246094 484.71875 " fill-opacity="1" fill-rule="nonzero"/><g clip-path="url(#937b9a430b)"><path fill="#50556e" d="M 1135.101562 275.28125 C 1176.4375 275.28125 1209.941406 308.785156 1209.941406 350.121094 L 1209.941406 1240.929688 C 1209.941406 1282.269531 1176.4375 1315.773438 1135.101562 1315.773438 L 125.679688 1315.773438 C 84.339844 1315.773438 50.835938 1282.269531 50.835938 1240.929688 L 50.835938 350.121094 C 50.835938 308.785156 84.339844 275.28125 125.679688 275.28125 Z M 1135.101562 275.28125 " fill-opacity="1" fill-rule="nonzero"/></g><g clip-path="url(#fac51bd4f2)"><path fill="#50556e" d="M 1135.101562 1317.125 L 125.679688 1317.125 C 83.800781 1317.125 49.488281 1283.078125 49.488281 1240.929688 L 49.488281 350.121094 C 49.488281 308.242188 83.53125 273.929688 125.679688 273.929688 L 1135.371094 273.929688 C 1177.25 273.929688 1211.5625 307.972656 1211.5625 350.121094 L 1211.5625 1240.929688 C 1211.292969 1282.808594 1177.25 1317.125 1135.101562 1317.125 Z M 125.679688 276.902344 C 85.152344 276.902344 52.1875 309.863281 52.1875 350.390625 L 52.1875 1241.199219 C 52.1875 1281.730469 85.152344 1314.691406 125.679688 1314.691406 L 1135.371094 1314.691406 C 1175.898438 1314.691406 1208.863281 1281.730469 1208.863281 1241.199219 L 1208.863281 350.121094 C 1208.863281 309.59375 1175.898438 276.632812 1135.371094 276.632812 L 125.679688 276.632812 Z M 125.679688 276.902344 " fill-opacity="1" fill-rule="nonzero"/></g><g clip-path="url(#4403163618)"><path fill="#ffffff" d="M 19.765625 1213.101562 L 19.765625 322.5625 C 19.765625 280.414062 53.808594 246.371094 95.957031 246.371094 L 1105.648438 246.371094 C 1147.800781 246.371094 1181.84375 280.414062 1181.84375 322.5625 L 1181.84375 1213.371094 C 1181.84375 1255.519531 1147.800781 1289.566406 1105.648438 1289.566406 L 95.957031 1289.566406 C 53.808594 1289.292969 19.765625 1255.25 19.765625 1213.101562 Z M 19.765625 1213.101562 " fill-opacity="1" fill-rule="nonzero"/></g><g clip-path="url(#c2fbfb5ef8)"><path fill="#50556e" d="M 1105.378906 1290.644531 L 95.957031 1290.644531 C 53.269531 1290.644531 18.414062 1255.792969 18.414062 1213.101562 L 18.414062 322.5625 C 18.414062 279.875 53.269531 245.019531 95.957031 245.019531 L 1105.648438 245.019531 C 1148.070312 245.019531 1182.925781 279.875 1182.925781 322.5625 L 1182.925781 1213.371094 C 1182.925781 1255.792969 1148.070312 1290.644531 1105.378906 1290.644531 Z M 95.957031 247.722656 C 54.621094 247.722656 21.117188 281.222656 21.117188 322.5625 L 21.117188 1213.371094 C 21.117188 1254.441406 54.621094 1287.945312 95.957031 1287.945312 L 1105.648438 1287.945312 C 1146.988281 1287.945312 1180.492188 1254.441406 1180.492188 1213.101562 L 1180.492188 322.5625 C 1180.222656 281.222656 1146.71875 247.722656 1105.378906 247.722656 Z M 95.957031 247.722656 " fill-opacity="1" fill-rule="nonzero"/></g><path stroke-linecap="butt" transform="matrix(4.182521, 0, 0, 4.182521, 96.227917, 701.956453)" fill="none" stroke-linejoin="miter" d="M 62.854256 12.597205 L 60.050549 12.597205 L 60.050549 37.807215 L 62.854256 37.807215 L 62.854256 47.000047 L 41.665818 47.000047 L 41.665818 37.807215 L 44.360253 37.807215 L 44.360253 28.560213 L 36.522576 28.560213 L 36.522576 37.807215 L 39.203002 37.807215 L 39.203002 47.000047 L 18.02764 47.000047 L 18.02764 37.807215 L 20.83228 37.807215 L 20.83228 12.597205 L 18.02764 12.597205 L 18.02764 3.404372 L 39.203002 3.404372 L 39.203002 12.597205 L 36.522576 12.597205 L 36.522576 21.11853 L 44.360253 21.11853 L 44.360253 12.597205 L 41.665818 12.597205 L 41.665818 3.404372 L 62.854256 3.404372 Z M 67.434328 47.000047 L 67.434328 37.807215 L 70.238968 37.807215 L 70.238968 12.597205 L 67.434328 12.597205 L 67.434328 3.404372 L 105.257281 3.404372 L 105.257281 20.32561 L 92.700375 20.32561 L 92.700375 12.597205 L 85.929265 12.597205 L 85.929265 21.447279 L 90.853029 21.447279 L 90.853029 27.835471 L 85.929265 27.835471 L 85.929265 37.807215 L 92.700375 37.807215 L 92.700375 28.95714 L 105.257281 28.95714 L 105.257281 47.000047 Z M 109.727148 47.000047 L 109.727148 37.807215 L 112.531788 37.807215 L 112.531788 12.597205 L 109.727148 12.597205 L 109.727148 3.404372 L 133.365326 3.404372 L 133.365326 12.597205 L 128.222085 12.597205 L 128.222085 37.807215 L 133.256055 37.807215 L 133.256055 32.650898 L 144.404571 32.650898 L 144.404571 47.000047 Z M 148.659629 47.000047 L 148.659629 37.807215 L 151.463336 37.807215 L 151.463336 12.597205 L 148.659629 12.597205 L 148.659629 3.404372 L 172.296874 3.404372 L 172.296874 12.597205 L 167.153632 12.597205 L 167.153632 37.807215 L 172.187602 37.807215 L 172.187602 32.650898 L 183.336118 32.650898 L 183.336118 47.000047 Z M 208.657268 47.779892 C 201.817046 47.779892 196.537448 45.987649 192.816606 42.404098 C 189.105104 38.819612 187.249353 33.087984 187.249353 25.209214 C 187.249353 17.321105 189.105104 11.584807 192.816606 8.000321 C 196.537448 4.41677 201.817046 2.624527 208.657268 2.624527 C 215.496556 2.624527 220.772418 4.41677 224.48392 8.000321 C 228.204762 11.584807 230.065183 17.321105 230.065183 25.209214 C 230.065183 33.087984 228.204762 38.819612 224.48392 42.404098 C 220.772418 45.987649 215.496556 47.779892 208.657268 47.779892 Z M 208.657268 37.807215 C 209.924633 37.807215 210.877258 37.47473 211.516077 36.808826 C 212.153962 36.134517 212.473372 35.085695 212.473372 33.662361 L 212.473372 16.742058 C 212.473372 15.328063 212.153962 14.283912 211.516077 13.608668 C 210.877258 12.934359 209.924633 12.597205 208.657268 12.597205 C 207.388969 12.597205 206.436344 12.934359 205.798458 13.608668 C 205.159639 14.283912 204.84023 15.328063 204.84023 16.742058 L 204.84023 33.662361 C 204.84023 35.122119 205.159639 36.179346 205.798458 36.835911 C 206.436344 37.484069 207.388969 37.807215 208.657268 37.807215 Z M 208.657268 37.807215 " stroke="#50556e" stroke-width="3.152047" stroke-opacity="1" stroke-miterlimit="4"/><path stroke-linecap="butt" transform="matrix(4.182521, 0, 0, 4.182521, 96.227917, 701.956453)" fill="none" stroke-linejoin="miter" d="M 49.026248 59.404721 L 66.959883 59.404721 L 66.959883 68.596619 L 64.716544 68.596619 L 56.371735 103.000396 L 39.614872 103.000396 L 34.512724 78.801849 L 33.951423 78.801849 L 28.575628 103.000396 L 11.818765 103.000396 L 2.913588 68.596619 L 0.670249 68.596619 L 0.670249 59.404721 L 21.407591 59.404721 L 21.407591 68.596619 L 19.274458 68.596619 L 21.462694 82.8916 L 22.023062 82.8916 L 27.344687 59.404721 L 43.47207 59.404721 L 48.410778 82.8916 L 48.971145 82.8916 L 51.160315 68.596619 L 49.026248 68.596619 Z M 92.152148 103.779307 C 85.31286 103.779307 80.032328 101.987998 76.311487 98.403512 C 72.599984 94.819961 70.744233 89.088333 70.744233 81.208629 C 70.744233 73.320519 72.599984 67.584221 76.311487 64.00067 C 80.032328 60.417118 85.31286 58.624876 92.152148 58.624876 C 98.991436 58.624876 104.267298 60.417118 107.978801 64.00067 C 111.699642 67.584221 113.560063 73.320519 113.560063 81.208629 C 113.560063 89.088333 111.699642 94.819961 107.978801 98.403512 C 104.267298 101.987998 98.991436 103.779307 92.152148 103.779307 Z M 92.152148 93.807563 C 93.419513 93.807563 94.373072 93.475078 95.010958 92.809175 C 95.649777 92.133931 95.968252 91.08511 95.968252 89.66271 L 95.968252 72.741472 C 95.968252 71.328412 95.649777 70.28426 95.010958 69.609017 C 94.373072 68.933774 93.419513 68.596619 92.152148 68.596619 C 90.884783 68.596619 89.931224 68.933774 89.293339 69.609017 C 88.65452 70.28426 88.336044 71.328412 88.336044 72.741472 L 88.336044 89.66271 C 88.336044 91.121534 88.65452 92.179695 89.293339 92.836259 C 89.931224 93.483484 90.884783 93.807563 92.152148 93.807563 Z M 117.803915 93.807563 L 120.608555 93.807563 L 120.608555 68.596619 L 117.803915 68.596619 L 117.803915 59.404721 L 143.521057 59.404721 C 148.336484 59.404721 152.011562 60.39377 154.546292 62.372802 C 157.091296 64.351834 158.363331 67.566477 158.363331 72.01673 C 158.363331 74.515036 157.857132 76.680858 156.844734 78.514194 C 155.841676 80.34753 154.405267 81.619565 152.535506 82.330298 L 152.603684 82.8916 C 156.18817 83.448232 157.980413 85.650477 157.980413 89.498335 L 157.980413 93.807563 L 160.606669 93.807563 L 160.606669 103.000396 L 142.850484 103.000396 L 142.850484 89.827084 C 142.850484 88.376666 142.63661 87.278345 142.207929 86.530254 C 141.779248 85.782163 141.104005 85.280634 140.183134 85.025667 C 139.271602 84.76136 137.976219 84.62874 136.298851 84.62874 L 136.298851 93.807563 L 139.991675 93.807563 L 139.991675 103.000396 L 117.803915 103.000396 Z M 139.322035 77.789452 C 140.406347 77.789452 141.21888 77.501796 141.756833 76.927419 C 142.294786 76.343703 142.563763 75.436841 142.563763 74.204966 L 142.563763 72.181105 C 142.563763 70.94923 142.294786 70.047038 141.756833 69.472661 C 141.21888 68.888944 140.406347 68.596619 139.322035 68.596619 L 136.298851 68.596619 L 136.298851 77.789452 Z M 164.970066 103.000396 L 164.970066 93.807563 L 167.774706 93.807563 L 167.774706 68.596619 L 164.970066 68.596619 L 164.970066 59.404721 L 188.608244 59.404721 L 188.608244 68.596619 L 183.465003 68.596619 L 183.465003 93.807563 L 188.498973 93.807563 L 188.498973 88.650312 L 199.647489 88.650312 L 199.647489 103.000396 Z M 203.902548 93.807563 L 206.706254 93.807563 L 206.706254 68.651722 L 203.902548 68.651722 L 203.902548 59.404721 L 226.650675 59.404721 C 232.888502 59.404721 237.844954 61.113842 241.520033 64.533953 C 245.204451 67.954064 247.046193 73.511978 247.046193 81.208629 C 247.046193 88.896874 245.204451 94.450118 241.520033 97.870229 C 237.844954 101.29034 232.888502 103.000396 226.650675 103.000396 L 203.902548 103.000396 Z M 225.638278 93.807563 C 226.905643 93.807563 227.859202 93.475078 228.497087 92.809175 C 229.135906 92.133931 229.455316 91.08511 229.455316 89.66271 L 229.455316 72.741472 C 229.455316 69.97886 228.182347 68.596619 225.638278 68.596619 L 222.39655 68.596619 L 222.39655 93.807563 Z M 225.638278 93.807563 " stroke="#50556e" stroke-width="3.152047" stroke-opacity="1" stroke-miterlimit="4"/></svg>