<svg xmlns="http://www.w3.org/2000/svg" xmlns:xlink="http://www.w3.org/1999/xlink" width="1640" zoomAndPan="magnify" viewBox="0 0 1230 1769.999925" height="2360" preserveAspectRatio="xMidYMid meet" version="1.0"><defs><g/><clipPath id="818d570f70"><path d="M 39 498 L 603.890625 498 L 603.890625 1294 L 39 1294 Z M 39 498 " clip-rule="nonzero"/></clipPath><clipPath id="fef0c4b577"><path d="M 38 497 L 603.890625 497 L 603.890625 1294.78125 L 38 1294.78125 Z M 38 497 " clip-rule="nonzero"/></clipPath><clipPath id="e0eb8021be"><path d="M 16 476 L 603.890625 476 L 603.890625 1274 L 16 1274 Z M 16 476 " clip-rule="nonzero"/></clipPath><clipPath id="a8f742ab03"><path d="M 15.089844 475.078125 L 603.890625 475.078125 L 603.890625 1275 L 15.089844 1275 Z M 15.089844 475.078125 " clip-rule="nonzero"/></clipPath><clipPath id="db5ad396ba"><path d="M 16 476 L 603.890625 476 L 603.890625 568 L 16 568 Z M 16 476 " clip-rule="nonzero"/></clipPath><clipPath id="f02590a26a"><path d="M 15.089844 475.078125 L 603.890625 475.078125 L 603.890625 569 L 15.089844 569 Z M 15.089844 475.078125 " clip-rule="nonzero"/></clipPath><clipPath id="78e44d5bff"><path d="M 553.402344 498 L 1214 498 L 1214 1294 L 553.402344 1294 Z M 553.402344 498 " clip-rule="nonzero"/></clipPath><clipPath id="83f62b2cae"><path d="M 553.402344 497 L 1214.773438 497 L 1214.773438 1294.78125 L 553.402344 1294.78125 Z M 553.402344 497 " clip-rule="nonzero"/></clipPath><clipPath id="6e61516b0b"><path d="M 553.402344 476 L 1193 476 L 1193 1274 L 553.402344 1274 Z M 553.402344 476 " clip-rule="nonzero"/></clipPath><clipPath id="8b36b7b120"><path d="M 553.402344 475.078125 L 1193 475.078125 L 1193 1275 L 553.402344 1275 Z M 553.402344 475.078125 " clip-rule="nonzero"/></clipPath><clipPath id="a238208006"><path d="M 553.402344 476 L 1193 476 L 1193 568 L 553.402344 568 Z M 553.402344 476 " clip-rule="nonzero"/></clipPath><clipPath id="fde22dcfac"><path d="M 553.402344 475.078125 L 1193 475.078125 L 1193 569 L 553.402344 569 Z M 553.402344 475.078125 " clip-rule="nonzero"/></clipPath></defs><g clip-path="url(#818d570f70)"><path fill="#cea0aa" d="M 868.816406 498.304688 C 900.421875 498.304688 926.035156 523.917969 926.035156 555.523438 L 926.035156 1236.5625 C 926.035156 1268.167969 900.421875 1293.78125 868.816406 1293.78125 L 97.097656 1293.78125 C 65.492188 1293.78125 39.878906 1268.167969 39.878906 1236.5625 L 39.878906 555.523438 C 39.878906 523.917969 65.492188 498.304688 97.097656 498.304688 Z M 868.816406 498.304688 " fill-opacity="1" fill-rule="nonzero"/></g><g clip-path="url(#fef0c4b577)"><path fill="#50556e" d="M 868.816406 1294.8125 L 97.097656 1294.8125 C 65.078125 1294.8125 38.84375 1268.785156 38.84375 1236.5625 L 38.84375 555.523438 C 38.84375 523.503906 64.871094 497.273438 97.097656 497.273438 L 869.023438 497.273438 C 901.042969 497.273438 927.273438 523.296875 927.273438 555.523438 L 927.273438 1236.5625 C 927.070312 1268.578125 901.042969 1294.8125 868.816406 1294.8125 Z M 97.097656 499.542969 C 66.113281 499.542969 40.910156 524.746094 40.910156 555.730469 L 40.910156 1236.769531 C 40.910156 1267.753906 66.113281 1292.953125 97.097656 1292.953125 L 869.023438 1292.953125 C 900.007812 1292.953125 925.210938 1267.753906 925.210938 1236.769531 L 925.210938 555.523438 C 925.210938 524.539062 900.007812 499.335938 869.023438 499.335938 L 97.097656 499.335938 Z M 97.097656 499.542969 " fill-opacity="1" fill-rule="nonzero"/></g><g clip-path="url(#e0eb8021be)"><path fill="#ffffff" d="M 16.125 1215.285156 L 16.125 534.453125 C 16.125 502.230469 42.152344 476.203125 74.375 476.203125 L 846.300781 476.203125 C 878.527344 476.203125 904.554688 502.230469 904.554688 534.453125 L 904.554688 1215.492188 C 904.554688 1247.714844 878.527344 1273.742188 846.300781 1273.742188 L 74.375 1273.742188 C 42.152344 1273.539062 16.125 1247.511719 16.125 1215.285156 Z M 16.125 1215.285156 " fill-opacity="1" fill-rule="nonzero"/></g><g clip-path="url(#a8f742ab03)"><path fill="#50556e" d="M 846.097656 1274.570312 L 74.375 1274.570312 C 41.738281 1274.570312 15.089844 1247.921875 15.089844 1215.285156 L 15.089844 534.453125 C 15.089844 501.816406 41.738281 475.167969 74.375 475.167969 L 846.300781 475.167969 C 878.734375 475.167969 905.378906 501.816406 905.378906 534.453125 L 905.378906 1215.492188 C 905.378906 1247.921875 878.734375 1274.570312 846.097656 1274.570312 Z M 74.375 477.234375 C 42.769531 477.234375 17.15625 502.847656 17.15625 534.453125 L 17.15625 1215.492188 C 17.15625 1246.890625 42.769531 1272.503906 74.375 1272.503906 L 846.300781 1272.503906 C 877.90625 1272.503906 903.519531 1246.890625 903.519531 1215.285156 L 903.519531 534.453125 C 903.3125 502.847656 877.699219 477.234375 846.097656 477.234375 Z M 74.375 477.234375 " fill-opacity="1" fill-rule="nonzero"/></g><g clip-path="url(#db5ad396ba)"><path fill="#fee1dd" d="M 16.125 566.882812 L 16.125 534.660156 C 16.125 502.4375 42.355469 476.203125 74.582031 476.203125 L 846.097656 476.203125 C 878.320312 476.203125 904.554688 502.4375 904.554688 534.660156 L 904.554688 567.089844 C 904.554688 567.089844 904.554688 567.296875 904.347656 567.296875 L 16.125 566.882812 C 16.125 567.089844 16.125 567.089844 16.125 566.882812 Z M 16.125 566.882812 " fill-opacity="1" fill-rule="nonzero"/></g><g clip-path="url(#f02590a26a)"><path fill="#50556e" d="M 904.140625 568.121094 L 15.296875 568.121094 L 15.089844 566.882812 L 15.089844 534.660156 C 15.089844 501.816406 41.738281 475.167969 74.582031 475.167969 L 846.097656 475.167969 C 878.734375 475.167969 905.378906 501.816406 905.378906 534.660156 L 905.378906 568.121094 Z M 17.15625 566.058594 L 903.3125 566.058594 L 903.3125 534.660156 C 903.3125 503.054688 877.492188 477.234375 845.890625 477.234375 L 74.582031 477.234375 C 42.976562 477.234375 17.15625 503.054688 17.15625 534.660156 Z M 17.15625 566.058594 " fill-opacity="1" fill-rule="nonzero"/></g><path fill="#e9c2c5" d="M 210.292969 521.644531 C 210.292969 508.839844 220.621094 498.511719 233.429688 498.511719 C 246.234375 498.511719 256.5625 508.839844 256.5625 521.644531 C 256.5625 534.453125 246.234375 544.78125 233.429688 544.78125 C 220.621094 544.78125 210.292969 534.453125 210.292969 521.644531 Z M 164.230469 544.988281 C 177.035156 544.988281 187.363281 534.660156 187.363281 521.851562 C 187.363281 509.046875 177.035156 498.71875 164.230469 498.71875 C 151.421875 498.71875 141.09375 508.839844 141.09375 521.644531 C 141.09375 534.453125 151.421875 544.988281 164.230469 544.988281 Z M 95.238281 544.988281 C 108.042969 544.988281 118.371094 534.660156 118.371094 521.851562 C 118.371094 509.046875 108.042969 498.71875 95.238281 498.71875 C 82.429688 498.71875 72.101562 509.046875 72.101562 521.851562 C 72.101562 534.660156 82.222656 544.988281 95.238281 544.988281 Z M 95.238281 544.988281 " fill-opacity="1" fill-rule="nonzero"/><path fill="#50556e" d="M 233.636719 545.8125 C 220.207031 545.8125 209.261719 535.074219 209.261719 521.644531 C 209.261719 508.21875 220.207031 497.273438 233.636719 497.273438 C 247.0625 497.273438 258.007812 508.21875 258.007812 521.644531 C 258.007812 535.074219 246.855469 545.8125 233.636719 545.8125 Z M 233.636719 499.542969 C 221.449219 499.542969 211.324219 509.457031 211.324219 521.851562 C 211.324219 534.246094 221.242188 544.160156 233.636719 544.160156 C 246.027344 544.160156 255.945312 534.246094 255.945312 521.851562 C 255.945312 509.457031 245.820312 499.542969 233.636719 499.542969 Z M 164.230469 545.8125 C 150.804688 545.8125 139.855469 534.867188 139.855469 521.4375 C 139.855469 508.011719 150.804688 497.066406 164.230469 497.066406 C 177.65625 497.066406 188.605469 508.21875 188.605469 521.644531 C 188.605469 535.074219 177.65625 545.8125 164.230469 545.8125 Z M 164.230469 499.542969 C 152.042969 499.542969 141.921875 509.457031 141.921875 521.851562 C 141.921875 534.246094 151.835938 544.160156 164.230469 544.160156 C 176.625 544.160156 186.539062 533.832031 186.539062 521.644531 C 186.539062 509.457031 176.625 499.542969 164.230469 499.542969 Z M 95.238281 545.8125 C 81.8125 545.8125 70.863281 535.074219 70.863281 521.644531 C 70.863281 508.21875 81.8125 497.273438 95.238281 497.273438 C 108.664062 497.273438 119.40625 508.21875 119.40625 521.644531 C 119.40625 535.074219 108.457031 545.8125 95.238281 545.8125 Z M 95.238281 499.542969 C 83.050781 499.542969 72.929688 509.457031 72.929688 521.851562 C 72.929688 534.246094 82.84375 544.160156 95.238281 544.160156 C 107.632812 544.160156 117.546875 534.246094 117.546875 521.851562 C 117.546875 509.457031 107.425781 499.542969 95.238281 499.542969 Z M 95.238281 499.542969 " fill-opacity="1" fill-rule="nonzero"/><g clip-path="url(#78e44d5bff)"><path fill="#cea0aa" d="M 1156.433594 498.304688 C 1188.039062 498.304688 1213.652344 523.917969 1213.652344 555.523438 L 1213.652344 1236.5625 C 1213.652344 1268.167969 1188.039062 1293.78125 1156.433594 1293.78125 L 384.714844 1293.78125 C 353.109375 1293.78125 327.496094 1268.167969 327.496094 1236.5625 L 327.496094 555.523438 C 327.496094 523.917969 353.109375 498.304688 384.714844 498.304688 Z M 1156.433594 498.304688 " fill-opacity="1" fill-rule="nonzero"/></g><g clip-path="url(#83f62b2cae)"><path fill="#50556e" d="M 1156.433594 1294.8125 L 384.714844 1294.8125 C 352.695312 1294.8125 326.460938 1268.785156 326.460938 1236.5625 L 326.460938 555.523438 C 326.460938 523.503906 352.488281 497.273438 384.714844 497.273438 L 1156.640625 497.273438 C 1188.660156 497.273438 1214.890625 523.296875 1214.890625 555.523438 L 1214.890625 1236.5625 C 1214.6875 1268.578125 1188.660156 1294.8125 1156.433594 1294.8125 Z M 384.714844 499.542969 C 353.730469 499.542969 328.527344 524.746094 328.527344 555.730469 L 328.527344 1236.769531 C 328.527344 1267.753906 353.730469 1292.953125 384.714844 1292.953125 L 1156.640625 1292.953125 C 1187.625 1292.953125 1212.828125 1267.753906 1212.828125 1236.769531 L 1212.828125 555.523438 C 1212.828125 524.539062 1187.625 499.335938 1156.640625 499.335938 L 384.714844 499.335938 Z M 384.714844 499.542969 " fill-opacity="1" fill-rule="nonzero"/></g><g clip-path="url(#6e61516b0b)"><path fill="#ffffff" d="M 303.742188 1215.285156 L 303.742188 534.453125 C 303.742188 502.230469 329.765625 476.203125 361.992188 476.203125 L 1133.917969 476.203125 C 1166.144531 476.203125 1192.171875 502.230469 1192.171875 534.453125 L 1192.171875 1215.492188 C 1192.171875 1247.714844 1166.144531 1273.742188 1133.917969 1273.742188 L 361.992188 1273.742188 C 329.765625 1273.539062 303.742188 1247.511719 303.742188 1215.285156 Z M 303.742188 1215.285156 " fill-opacity="1" fill-rule="nonzero"/></g><g clip-path="url(#8b36b7b120)"><path fill="#50556e" d="M 1133.710938 1274.570312 L 361.992188 1274.570312 C 329.355469 1274.570312 302.707031 1247.921875 302.707031 1215.285156 L 302.707031 534.453125 C 302.707031 501.816406 329.355469 475.167969 361.992188 475.167969 L 1133.917969 475.167969 C 1166.351562 475.167969 1192.996094 501.816406 1192.996094 534.453125 L 1192.996094 1215.492188 C 1192.996094 1247.921875 1166.351562 1274.570312 1133.710938 1274.570312 Z M 361.992188 477.234375 C 330.386719 477.234375 304.773438 502.847656 304.773438 534.453125 L 304.773438 1215.492188 C 304.773438 1246.890625 330.386719 1272.503906 361.992188 1272.503906 L 1133.917969 1272.503906 C 1165.523438 1272.503906 1191.136719 1246.890625 1191.136719 1215.285156 L 1191.136719 534.453125 C 1190.929688 502.847656 1165.316406 477.234375 1133.710938 477.234375 Z M 361.992188 477.234375 " fill-opacity="1" fill-rule="nonzero"/></g><g clip-path="url(#a238208006)"><path fill="#fee1dd" d="M 303.742188 566.882812 L 303.742188 534.660156 C 303.742188 502.4375 329.972656 476.203125 362.199219 476.203125 L 1133.710938 476.203125 C 1165.9375 476.203125 1192.171875 502.4375 1192.171875 534.660156 L 1192.171875 567.089844 C 1192.171875 567.089844 1192.171875 567.296875 1191.964844 567.296875 L 303.742188 566.882812 C 303.742188 567.089844 303.742188 567.089844 303.742188 566.882812 Z M 303.742188 566.882812 " fill-opacity="1" fill-rule="nonzero"/></g><g clip-path="url(#fde22dcfac)"><path fill="#50556e" d="M 1191.757812 568.121094 L 302.914062 568.121094 L 302.707031 566.882812 L 302.707031 534.660156 C 302.707031 501.816406 329.355469 475.167969 362.199219 475.167969 L 1133.710938 475.167969 C 1166.351562 475.167969 1192.996094 501.816406 1192.996094 534.660156 L 1192.996094 568.121094 Z M 304.773438 566.058594 L 1190.929688 566.058594 L 1190.929688 534.660156 C 1190.929688 503.054688 1165.109375 477.234375 1133.507812 477.234375 L 362.199219 477.234375 C 330.59375 477.234375 304.773438 503.054688 304.773438 534.660156 Z M 304.773438 566.058594 " fill-opacity="1" fill-rule="nonzero"/></g><g fill="#50556e" fill-opacity="1"><g transform="translate(137.497807, 779.855944)"><g><path d="M 31.890625 -45.5625 L 42.828125 -45.5625 L 42.828125 0 L 12.609375 -22.21875 L 12.609375 0 L 1.6875 0 L 1.6875 -45.5625 L 31.890625 -22.296875 Z M 31.890625 -45.5625 "/></g></g></g><g fill="#50556e" fill-opacity="1"><g transform="translate(184.303137, 779.855944)"><g><path d="M 11.84375 -48.859375 L 11.84375 -40.578125 L 2.109375 -40.578125 L 2.109375 -48.859375 Z M 11.921875 -36.03125 L 11.921875 0 L 2.109375 0 L 2.109375 -36.03125 Z M 11.921875 -36.03125 "/></g></g></g><g fill="#50556e" fill-opacity="1"><g transform="translate(200.629627, 779.855944)"><g><path d="M 30.984375 -4.34375 C 27.566406 -1.445312 23.59375 0 19.0625 0 C 14.0625 -0.0390625 9.8125 -1.835938 6.3125 -5.390625 C 2.800781 -8.941406 1.070312 -13.195312 1.125 -18.15625 C 1.164062 -23.15625 2.960938 -27.40625 6.515625 -30.90625 C 10.066406 -34.414062 14.320312 -36.144531 19.28125 -36.09375 C 23.757812 -36.050781 27.679688 -34.554688 31.046875 -31.609375 L 24.53125 -25.15625 C 22.945312 -26.332031 21.171875 -26.921875 19.203125 -26.921875 C 16.773438 -26.921875 14.671875 -26.078125 12.890625 -24.390625 C 11.160156 -22.660156 10.296875 -20.554688 10.296875 -18.078125 C 10.203125 -15.648438 11.046875 -13.550781 12.828125 -11.78125 C 14.503906 -10.09375 16.609375 -9.203125 19.140625 -9.109375 C 21.097656 -9.109375 22.875 -9.691406 24.46875 -10.859375 Z M 30.984375 -4.34375 "/></g></g></g><g fill="#50556e" fill-opacity="1"><g transform="translate(235.033216, 779.855944)"><g><path d="M 36.875 -16.46875 C 36.914062 -15.488281 36.914062 -14.90625 36.875 -14.71875 L 10.515625 -14.796875 C 10.890625 -13.710938 11.566406 -12.679688 12.546875 -11.703125 C 14.367188 -9.972656 16.472656 -9.109375 18.859375 -9.109375 C 21.378906 -9.203125 23.476562 -10.09375 25.15625 -11.78125 L 25.4375 -12.0625 L 34.5625 -9.1875 C 32.550781 -6.050781 30.445312 -3.804688 28.25 -2.453125 C 25.769531 -0.859375 22.660156 -0.0390625 18.921875 0 C 13.972656 0.0390625 9.722656 -1.6875 6.171875 -5.1875 C 2.617188 -8.6875 0.816406 -12.9375 0.765625 -17.9375 C 0.722656 -22.894531 2.453125 -27.148438 5.953125 -30.703125 C 9.460938 -34.253906 13.71875 -36.050781 18.71875 -36.09375 C 23.664062 -36.144531 27.914062 -34.414062 31.46875 -30.90625 C 35.019531 -27.40625 36.820312 -23.15625 36.875 -18.15625 Z M 18.78125 -26.921875 C 16.300781 -26.921875 14.203125 -26.054688 12.484375 -24.328125 C 11.585938 -23.335938 10.953125 -22.351562 10.578125 -21.375 L 27.0625 -21.375 C 26.6875 -22.351562 26.03125 -23.359375 25.09375 -24.390625 C 23.320312 -26.078125 21.21875 -26.921875 18.78125 -26.921875 Z M 18.78125 -26.921875 "/></g></g></g><g fill="#50556e" fill-opacity="1"><g transform="translate(274.972072, 779.855944)"><g/></g></g><g fill="#50556e" fill-opacity="1"><g transform="translate(295.502537, 779.855944)"><g><path d="M 28.109375 -36.09375 L 28.109375 -26.28125 L 20.046875 -26.28125 L 20.046875 0 L 10.234375 0 L 10.234375 -26.28125 L 2.109375 -26.28125 L 2.109375 -36.09375 L 10.234375 -36.09375 L 10.234375 -48.71875 L 20.046875 -48.71875 L 20.046875 -36.09375 Z M 28.109375 -36.09375 "/></g></g></g><g fill="#50556e" fill-opacity="1"><g transform="translate(328.014355, 779.855944)"><g><path d="M 18.71875 -36.09375 C 23.71875 -36.144531 27.96875 -34.414062 31.46875 -30.90625 C 35.019531 -27.351562 36.796875 -23.101562 36.796875 -18.15625 C 36.847656 -13.15625 35.117188 -8.898438 31.609375 -5.390625 C 28.109375 -1.835938 23.878906 -0.0390625 18.921875 0 C 13.921875 0.0390625 9.644531 -1.6875 6.09375 -5.1875 C 2.539062 -8.6875 0.765625 -12.9375 0.765625 -17.9375 C 0.722656 -22.9375 2.453125 -27.191406 5.953125 -30.703125 C 9.460938 -34.253906 13.71875 -36.050781 18.71875 -36.09375 Z M 25.09375 -11.78125 C 26.820312 -13.507812 27.6875 -15.609375 27.6875 -18.078125 C 27.6875 -20.515625 26.796875 -22.617188 25.015625 -24.390625 C 23.242188 -26.078125 21.144531 -26.921875 18.71875 -26.921875 C 16.28125 -26.921875 14.203125 -26.054688 12.484375 -24.328125 C 10.753906 -22.503906 9.890625 -20.398438 9.890625 -18.015625 C 9.890625 -15.585938 10.773438 -13.484375 12.546875 -11.703125 C 14.273438 -9.972656 16.378906 -9.109375 18.859375 -9.109375 C 21.378906 -9.203125 23.457031 -10.09375 25.09375 -11.78125 Z M 25.09375 -11.78125 "/></g></g></g><g fill="#50556e" fill-opacity="1"><g transform="translate(367.883137, 779.855944)"><g/></g></g><g fill="#50556e" fill-opacity="1"><g transform="translate(388.413602, 779.855944)"><g><path d="M 46.265625 -36.171875 C 51.117188 -36.210938 55.066406 -34.765625 58.109375 -31.828125 C 61.378906 -28.742188 63.015625 -24.421875 63.015625 -18.859375 L 63.015625 0 L 53.90625 0 L 53.90625 -18.21875 C 53.90625 -18.925781 53.785156 -19.722656 53.546875 -20.609375 C 53.222656 -21.679688 52.78125 -22.640625 52.21875 -23.484375 C 50.726562 -25.867188 48.53125 -27.0625 45.625 -27.0625 C 42.539062 -27.0625 40.300781 -25.867188 38.90625 -23.484375 C 38.382812 -22.597656 38.007812 -21.59375 37.78125 -20.46875 C 37.59375 -19.675781 37.5 -18.878906 37.5 -18.078125 L 37.5 0 L 28.3125 0 L 28.3125 -18.21875 C 28.3125 -18.925781 28.195312 -19.722656 27.96875 -20.609375 C 27.6875 -21.679688 27.265625 -22.640625 26.703125 -23.484375 C 25.160156 -25.867188 22.960938 -27.0625 20.109375 -27.0625 C 16.984375 -27.0625 14.71875 -25.867188 13.3125 -23.484375 C 12.800781 -22.597656 12.429688 -21.59375 12.203125 -20.46875 C 12.015625 -19.675781 11.921875 -18.878906 11.921875 -18.078125 L 11.921875 0 L 2.109375 0 L 2.109375 -36.234375 L 11.921875 -36.234375 L 11.921875 -32.453125 C 14.203125 -34.929688 17.144531 -36.171875 20.75 -36.171875 C 26.03125 -36.265625 30.304688 -34.226562 33.578125 -30.0625 L 36.515625 -32.796875 C 39.273438 -35.046875 42.523438 -36.171875 46.265625 -36.171875 Z M 46.265625 -36.171875 "/></g></g></g><g fill="#50556e" fill-opacity="1"><g transform="translate(455.818421, 779.855944)"><g><path d="M 36.875 -16.46875 C 36.914062 -15.488281 36.914062 -14.90625 36.875 -14.71875 L 10.515625 -14.796875 C 10.890625 -13.710938 11.566406 -12.679688 12.546875 -11.703125 C 14.367188 -9.972656 16.472656 -9.109375 18.859375 -9.109375 C 21.378906 -9.203125 23.476562 -10.09375 25.15625 -11.78125 L 25.4375 -12.0625 L 34.5625 -9.1875 C 32.550781 -6.050781 30.445312 -3.804688 28.25 -2.453125 C 25.769531 -0.859375 22.660156 -0.0390625 18.921875 0 C 13.972656 0.0390625 9.722656 -1.6875 6.171875 -5.1875 C 2.617188 -8.6875 0.816406 -12.9375 0.765625 -17.9375 C 0.722656 -22.894531 2.453125 -27.148438 5.953125 -30.703125 C 9.460938 -34.253906 13.71875 -36.050781 18.71875 -36.09375 C 23.664062 -36.144531 27.914062 -34.414062 31.46875 -30.90625 C 35.019531 -27.40625 36.820312 -23.15625 36.875 -18.15625 Z M 18.78125 -26.921875 C 16.300781 -26.921875 14.203125 -26.054688 12.484375 -24.328125 C 11.585938 -23.335938 10.953125 -22.351562 10.578125 -21.375 L 27.0625 -21.375 C 26.6875 -22.351562 26.03125 -23.359375 25.09375 -24.390625 C 23.320312 -26.078125 21.21875 -26.921875 18.78125 -26.921875 Z M 18.78125 -26.921875 "/></g></g></g><g fill="#50556e" fill-opacity="1"><g transform="translate(495.757286, 779.855944)"><g><path d="M 36.875 -16.46875 C 36.914062 -15.488281 36.914062 -14.90625 36.875 -14.71875 L 10.515625 -14.796875 C 10.890625 -13.710938 11.566406 -12.679688 12.546875 -11.703125 C 14.367188 -9.972656 16.472656 -9.109375 18.859375 -9.109375 C 21.378906 -9.203125 23.476562 -10.09375 25.15625 -11.78125 L 25.4375 -12.0625 L 34.5625 -9.1875 C 32.550781 -6.050781 30.445312 -3.804688 28.25 -2.453125 C 25.769531 -0.859375 22.660156 -0.0390625 18.921875 0 C 13.972656 0.0390625 9.722656 -1.6875 6.171875 -5.1875 C 2.617188 -8.6875 0.816406 -12.9375 0.765625 -17.9375 C 0.722656 -22.894531 2.453125 -27.148438 5.953125 -30.703125 C 9.460938 -34.253906 13.71875 -36.050781 18.71875 -36.09375 C 23.664062 -36.144531 27.914062 -34.414062 31.46875 -30.90625 C 35.019531 -27.40625 36.820312 -23.15625 36.875 -18.15625 Z M 18.78125 -26.921875 C 16.300781 -26.921875 14.203125 -26.054688 12.484375 -24.328125 C 11.585938 -23.335938 10.953125 -22.351562 10.578125 -21.375 L 27.0625 -21.375 C 26.6875 -22.351562 26.03125 -23.359375 25.09375 -24.390625 C 23.320312 -26.078125 21.21875 -26.921875 18.78125 -26.921875 Z M 18.78125 -26.921875 "/></g></g></g><g fill="#50556e" fill-opacity="1"><g transform="translate(535.696151, 779.855944)"><g><path d="M 28.109375 -36.09375 L 28.109375 -26.28125 L 20.046875 -26.28125 L 20.046875 0 L 10.234375 0 L 10.234375 -26.28125 L 2.109375 -26.28125 L 2.109375 -36.09375 L 10.234375 -36.09375 L 10.234375 -48.71875 L 20.046875 -48.71875 L 20.046875 -36.09375 Z M 28.109375 -36.09375 "/></g></g></g><g fill="#50556e" fill-opacity="1"><g transform="translate(568.207987, 779.855944)"><g/></g></g><g fill="#50556e" fill-opacity="1"><g transform="translate(588.738471, 779.855944)"><g><path d="M 36.09375 -36.171875 L 21.875 1.609375 C 20.332031 5.347656 17.878906 8.316406 14.515625 10.515625 C 11.148438 12.710938 7.476562 13.765625 3.5 13.671875 L 3.5 3.859375 C 4.945312 3.898438 6.394531 3.59375 7.84375 2.9375 C 9.90625 2.007812 11.453125 0.539062 12.484375 -1.46875 L 14.4375 -6.875 L 2.109375 -36.171875 L 12.890625 -36.171875 L 19.421875 -20.390625 L 25.234375 -36.171875 Z M 36.09375 -36.171875 "/></g></g></g><g fill="#50556e" fill-opacity="1"><g transform="translate(629.307934, 779.855944)"><g><path d="M 18.71875 -36.09375 C 23.71875 -36.144531 27.96875 -34.414062 31.46875 -30.90625 C 35.019531 -27.351562 36.796875 -23.101562 36.796875 -18.15625 C 36.847656 -13.15625 35.117188 -8.898438 31.609375 -5.390625 C 28.109375 -1.835938 23.878906 -0.0390625 18.921875 0 C 13.921875 0.0390625 9.644531 -1.6875 6.09375 -5.1875 C 2.539062 -8.6875 0.765625 -12.9375 0.765625 -17.9375 C 0.722656 -22.9375 2.453125 -27.191406 5.953125 -30.703125 C 9.460938 -34.253906 13.71875 -36.050781 18.71875 -36.09375 Z M 25.09375 -11.78125 C 26.820312 -13.507812 27.6875 -15.609375 27.6875 -18.078125 C 27.6875 -20.515625 26.796875 -22.617188 25.015625 -24.390625 C 23.242188 -26.078125 21.144531 -26.921875 18.71875 -26.921875 C 16.28125 -26.921875 14.203125 -26.054688 12.484375 -24.328125 C 10.753906 -22.503906 9.890625 -20.398438 9.890625 -18.015625 C 9.890625 -15.585938 10.773438 -13.484375 12.546875 -11.703125 C 14.273438 -9.972656 16.378906 -9.109375 18.859375 -9.109375 C 21.378906 -9.203125 23.457031 -10.09375 25.09375 -11.78125 Z M 25.09375 -11.78125 "/></g></g></g><g fill="#50556e" fill-opacity="1"><g transform="translate(669.176716, 779.855944)"><g><path d="M 2.109375 -36.234375 L 11.21875 -36.234375 L 11.21875 -18.015625 C 11.21875 -17.316406 11.332031 -16.519531 11.5625 -15.625 C 11.84375 -14.550781 12.265625 -13.570312 12.828125 -12.6875 C 14.367188 -10.351562 16.566406 -9.1875 19.421875 -9.1875 C 22.546875 -9.1875 24.8125 -10.375 26.21875 -12.75 C 26.726562 -13.59375 27.101562 -14.578125 27.34375 -15.703125 C 27.519531 -16.492188 27.609375 -17.285156 27.609375 -18.078125 L 27.609375 -36.234375 L 37.4375 -36.234375 L 37.4375 0 L 27.609375 0 L 27.609375 -3.78125 C 25.328125 -1.257812 22.382812 0 18.78125 0 C 14.15625 0.0390625 10.234375 -1.617188 7.015625 -4.984375 C 3.742188 -8.296875 2.109375 -12.40625 2.109375 -17.3125 Z M 2.109375 -36.234375 "/></g></g></g><g fill="#50556e" fill-opacity="1"><g transform="translate(711.007342, 779.855944)"><g><path d="M 2.109375 -9.8125 L 11.921875 -9.8125 L 11.921875 0 L 9.25 5.953125 L 4.203125 5.953125 L 6.9375 0 L 2.109375 0 Z M 2.109375 -9.8125 "/></g></g></g><g fill="#50556e" fill-opacity="1"><g transform="translate(727.333841, 779.855944)"><g/></g></g><g fill="#50556e" fill-opacity="1"><g transform="translate(747.864324, 779.855944)"><g><path d="M 52.359375 -36.59375 L 32.734375 0 L 32.65625 -0.0625 L 26.359375 -11.84375 L 19.984375 0 L 19.984375 -0.0625 L 0.34375 -36.59375 L 10.4375 -36.59375 L 19.984375 -18.296875 L 21.375 -21.03125 L 13.03125 -36.59375 L 23.125 -36.59375 L 32.734375 -18.296875 L 42.265625 -36.59375 Z M 52.359375 -36.59375 "/></g></g></g><g fill="#50556e" fill-opacity="1"><g transform="translate(802.867383, 779.855944)"><g><path d="M 38.90625 0 L 29.796875 0 L 29.796875 -17.796875 L 29.71875 -17.796875 L 29.71875 -18.015625 C 29.71875 -20.441406 28.851562 -22.519531 27.125 -24.25 C 25.394531 -25.976562 23.289062 -26.84375 20.8125 -26.84375 C 18.382812 -26.84375 16.285156 -25.957031 14.515625 -24.1875 C 12.734375 -22.40625 11.890625 -20.300781 11.984375 -17.875 L 11.984375 -17.796875 L 11.921875 -17.796875 L 11.921875 0 L 2.109375 0 L 2.109375 -45.5625 L 11.921875 -45.5625 L 11.921875 -31.546875 C 14.109375 -34.160156 17.050781 -35.628906 20.75 -35.953125 C 25.882812 -36.378906 30.132812 -35.050781 33.5 -31.96875 C 37.101562 -28.644531 38.90625 -23.992188 38.90625 -18.015625 Z M 38.90625 0 "/></g></g></g><g fill="#50556e" fill-opacity="1"><g transform="translate(846.169384, 779.855944)"><g><path d="M 36.875 -16.46875 C 36.914062 -15.488281 36.914062 -14.90625 36.875 -14.71875 L 10.515625 -14.796875 C 10.890625 -13.710938 11.566406 -12.679688 12.546875 -11.703125 C 14.367188 -9.972656 16.472656 -9.109375 18.859375 -9.109375 C 21.378906 -9.203125 23.476562 -10.09375 25.15625 -11.78125 L 25.4375 -12.0625 L 34.5625 -9.1875 C 32.550781 -6.050781 30.445312 -3.804688 28.25 -2.453125 C 25.769531 -0.859375 22.660156 -0.0390625 18.921875 0 C 13.972656 0.0390625 9.722656 -1.6875 6.171875 -5.1875 C 2.617188 -8.6875 0.816406 -12.9375 0.765625 -17.9375 C 0.722656 -22.894531 2.453125 -27.148438 5.953125 -30.703125 C 9.460938 -34.253906 13.71875 -36.050781 18.71875 -36.09375 C 23.664062 -36.144531 27.914062 -34.414062 31.46875 -30.90625 C 35.019531 -27.40625 36.820312 -23.15625 36.875 -18.15625 Z M 18.78125 -26.921875 C 16.300781 -26.921875 14.203125 -26.054688 12.484375 -24.328125 C 11.585938 -23.335938 10.953125 -22.351562 10.578125 -21.375 L 27.0625 -21.375 C 26.6875 -22.351562 26.03125 -23.359375 25.09375 -24.390625 C 23.320312 -26.078125 21.21875 -26.921875 18.78125 -26.921875 Z M 18.78125 -26.921875 "/></g></g></g><g fill="#50556e" fill-opacity="1"><g transform="translate(886.108212, 779.855944)"><g><path d="M 11.921875 -30.703125 C 12.710938 -32.941406 14.039062 -34.503906 15.90625 -35.390625 C 17.726562 -36.285156 20.460938 -36.734375 24.109375 -36.734375 L 24.109375 -26.703125 C 20.554688 -26.703125 17.585938 -25.488281 15.203125 -23.0625 C 13.015625 -20.914062 11.921875 -18.554688 11.921875 -15.984375 L 11.921875 0 L 2.109375 0 L 2.109375 -36.09375 L 11.921875 -36.09375 Z M 11.921875 -30.703125 "/></g></g></g><g fill="#50556e" fill-opacity="1"><g transform="translate(913.575216, 779.855944)"><g><path d="M 36.875 -16.46875 C 36.914062 -15.488281 36.914062 -14.90625 36.875 -14.71875 L 10.515625 -14.796875 C 10.890625 -13.710938 11.566406 -12.679688 12.546875 -11.703125 C 14.367188 -9.972656 16.472656 -9.109375 18.859375 -9.109375 C 21.378906 -9.203125 23.476562 -10.09375 25.15625 -11.78125 L 25.4375 -12.0625 L 34.5625 -9.1875 C 32.550781 -6.050781 30.445312 -3.804688 28.25 -2.453125 C 25.769531 -0.859375 22.660156 -0.0390625 18.921875 0 C 13.972656 0.0390625 9.722656 -1.6875 6.171875 -5.1875 C 2.617188 -8.6875 0.816406 -12.9375 0.765625 -17.9375 C 0.722656 -22.894531 2.453125 -27.148438 5.953125 -30.703125 C 9.460938 -34.253906 13.71875 -36.050781 18.71875 -36.09375 C 23.664062 -36.144531 27.914062 -34.414062 31.46875 -30.90625 C 35.019531 -27.40625 36.820312 -23.15625 36.875 -18.15625 Z M 18.78125 -26.921875 C 16.300781 -26.921875 14.203125 -26.054688 12.484375 -24.328125 C 11.585938 -23.335938 10.953125 -22.351562 10.578125 -21.375 L 27.0625 -21.375 C 26.6875 -22.351562 26.03125 -23.359375 25.09375 -24.390625 C 23.320312 -26.078125 21.21875 -26.921875 18.78125 -26.921875 Z M 18.78125 -26.921875 "/></g></g></g><g fill="#50556e" fill-opacity="1"><g transform="translate(137.497807, 876.498956)"><g><path d="M 36.09375 -36.171875 L 21.875 1.609375 C 20.332031 5.347656 17.878906 8.316406 14.515625 10.515625 C 11.148438 12.710938 7.476562 13.765625 3.5 13.671875 L 3.5 3.859375 C 4.945312 3.898438 6.394531 3.59375 7.84375 2.9375 C 9.90625 2.007812 11.453125 0.539062 12.484375 -1.46875 L 14.4375 -6.875 L 2.109375 -36.171875 L 12.890625 -36.171875 L 19.421875 -20.390625 L 25.234375 -36.171875 Z M 36.09375 -36.171875 "/></g></g></g><g fill="#50556e" fill-opacity="1"><g transform="translate(178.067263, 876.498956)"><g><path d="M 18.71875 -36.09375 C 23.71875 -36.144531 27.96875 -34.414062 31.46875 -30.90625 C 35.019531 -27.351562 36.796875 -23.101562 36.796875 -18.15625 C 36.847656 -13.15625 35.117188 -8.898438 31.609375 -5.390625 C 28.109375 -1.835938 23.878906 -0.0390625 18.921875 0 C 13.921875 0.0390625 9.644531 -1.6875 6.09375 -5.1875 C 2.539062 -8.6875 0.765625 -12.9375 0.765625 -17.9375 C 0.722656 -22.9375 2.453125 -27.191406 5.953125 -30.703125 C 9.460938 -34.253906 13.71875 -36.050781 18.71875 -36.09375 Z M 25.09375 -11.78125 C 26.820312 -13.507812 27.6875 -15.609375 27.6875 -18.078125 C 27.6875 -20.515625 26.796875 -22.617188 25.015625 -24.390625 C 23.242188 -26.078125 21.144531 -26.921875 18.71875 -26.921875 C 16.28125 -26.921875 14.203125 -26.054688 12.484375 -24.328125 C 10.753906 -22.503906 9.890625 -20.398438 9.890625 -18.015625 C 9.890625 -15.585938 10.773438 -13.484375 12.546875 -11.703125 C 14.273438 -9.972656 16.378906 -9.109375 18.859375 -9.109375 C 21.378906 -9.203125 23.457031 -10.09375 25.09375 -11.78125 Z M 25.09375 -11.78125 "/></g></g></g><g fill="#50556e" fill-opacity="1"><g transform="translate(217.936036, 876.498956)"><g><path d="M 2.109375 -36.234375 L 11.21875 -36.234375 L 11.21875 -18.015625 C 11.21875 -17.316406 11.332031 -16.519531 11.5625 -15.625 C 11.84375 -14.550781 12.265625 -13.570312 12.828125 -12.6875 C 14.367188 -10.351562 16.566406 -9.1875 19.421875 -9.1875 C 22.546875 -9.1875 24.8125 -10.375 26.21875 -12.75 C 26.726562 -13.59375 27.101562 -14.578125 27.34375 -15.703125 C 27.519531 -16.492188 27.609375 -17.285156 27.609375 -18.078125 L 27.609375 -36.234375 L 37.4375 -36.234375 L 37.4375 0 L 27.609375 0 L 27.609375 -3.78125 C 25.328125 -1.257812 22.382812 0 18.78125 0 C 14.15625 0.0390625 10.234375 -1.617188 7.015625 -4.984375 C 3.742188 -8.296875 2.109375 -12.40625 2.109375 -17.3125 Z M 2.109375 -36.234375 "/></g></g></g><g fill="#50556e" fill-opacity="1"><g transform="translate(259.766652, 876.498956)"><g/></g></g><g fill="#50556e" fill-opacity="1"><g transform="translate(280.297126, 876.498956)"><g><path d="M 23.625 -36.09375 C 28.625 -36.050781 32.875 -34.253906 36.375 -30.703125 C 39.882812 -27.148438 41.613281 -22.894531 41.5625 -17.9375 C 41.519531 -12.9375 39.722656 -8.6875 36.171875 -5.1875 C 32.617188 -1.6875 28.363281 0.0390625 23.40625 0 C 19.15625 0 15.347656 -1.378906 11.984375 -4.140625 L 11.984375 0 L 2.171875 0 L 2.109375 -48.921875 L 11.921875 -48.921875 L 11.921875 -31.828125 C 15.285156 -34.671875 19.1875 -36.09375 23.625 -36.09375 Z M 29.796875 -11.703125 C 31.472656 -13.390625 32.359375 -15.492188 32.453125 -18.015625 C 32.453125 -20.398438 31.585938 -22.503906 29.859375 -24.328125 C 28.128906 -26.054688 26.023438 -26.921875 23.546875 -26.921875 C 21.117188 -26.921875 19.019531 -26.078125 17.25 -24.390625 C 15.519531 -22.660156 14.65625 -20.554688 14.65625 -18.078125 C 14.5625 -15.648438 15.398438 -13.550781 17.171875 -11.78125 C 18.859375 -10.09375 20.960938 -9.203125 23.484375 -9.109375 C 25.960938 -9.109375 28.066406 -9.972656 29.796875 -11.703125 Z M 29.796875 -11.703125 "/></g></g></g><g fill="#50556e" fill-opacity="1"><g transform="translate(325.280749, 876.498956)"><g><path d="M 36.875 -16.46875 C 36.914062 -15.488281 36.914062 -14.90625 36.875 -14.71875 L 10.515625 -14.796875 C 10.890625 -13.710938 11.566406 -12.679688 12.546875 -11.703125 C 14.367188 -9.972656 16.472656 -9.109375 18.859375 -9.109375 C 21.378906 -9.203125 23.476562 -10.09375 25.15625 -11.78125 L 25.4375 -12.0625 L 34.5625 -9.1875 C 32.550781 -6.050781 30.445312 -3.804688 28.25 -2.453125 C 25.769531 -0.859375 22.660156 -0.0390625 18.921875 0 C 13.972656 0.0390625 9.722656 -1.6875 6.171875 -5.1875 C 2.617188 -8.6875 0.816406 -12.9375 0.765625 -17.9375 C 0.722656 -22.894531 2.453125 -27.148438 5.953125 -30.703125 C 9.460938 -34.253906 13.71875 -36.050781 18.71875 -36.09375 C 23.664062 -36.144531 27.914062 -34.414062 31.46875 -30.90625 C 35.019531 -27.40625 36.820312 -23.15625 36.875 -18.15625 Z M 18.78125 -26.921875 C 16.300781 -26.921875 14.203125 -26.054688 12.484375 -24.328125 C 11.585938 -23.335938 10.953125 -22.351562 10.578125 -21.375 L 27.0625 -21.375 C 26.6875 -22.351562 26.03125 -23.359375 25.09375 -24.390625 C 23.320312 -26.078125 21.21875 -26.921875 18.78125 -26.921875 Z M 18.78125 -26.921875 "/></g></g></g><g fill="#50556e" fill-opacity="1"><g transform="translate(365.219614, 876.498956)"><g><path d="M 36.875 -16.46875 C 36.914062 -15.488281 36.914062 -14.90625 36.875 -14.71875 L 10.515625 -14.796875 C 10.890625 -13.710938 11.566406 -12.679688 12.546875 -11.703125 C 14.367188 -9.972656 16.472656 -9.109375 18.859375 -9.109375 C 21.378906 -9.203125 23.476562 -10.09375 25.15625 -11.78125 L 25.4375 -12.0625 L 34.5625 -9.1875 C 32.550781 -6.050781 30.445312 -3.804688 28.25 -2.453125 C 25.769531 -0.859375 22.660156 -0.0390625 18.921875 0 C 13.972656 0.0390625 9.722656 -1.6875 6.171875 -5.1875 C 2.617188 -8.6875 0.816406 -12.9375 0.765625 -17.9375 C 0.722656 -22.894531 2.453125 -27.148438 5.953125 -30.703125 C 9.460938 -34.253906 13.71875 -36.050781 18.71875 -36.09375 C 23.664062 -36.144531 27.914062 -34.414062 31.46875 -30.90625 C 35.019531 -27.40625 36.820312 -23.15625 36.875 -18.15625 Z M 18.78125 -26.921875 C 16.300781 -26.921875 14.203125 -26.054688 12.484375 -24.328125 C 11.585938 -23.335938 10.953125 -22.351562 10.578125 -21.375 L 27.0625 -21.375 C 26.6875 -22.351562 26.03125 -23.359375 25.09375 -24.390625 C 23.320312 -26.078125 21.21875 -26.921875 18.78125 -26.921875 Z M 18.78125 -26.921875 "/></g></g></g><g fill="#50556e" fill-opacity="1"><g transform="translate(405.158479, 876.498956)"><g><path d="M 20.046875 -35.953125 C 25.179688 -36.378906 29.429688 -35.050781 32.796875 -31.96875 C 36.398438 -28.644531 38.203125 -23.992188 38.203125 -18.015625 L 38.203125 0 L 29.09375 0 L 29.09375 -17.796875 L 29.015625 -17.796875 L 29.015625 -17.9375 C 29.015625 -20.414062 28.148438 -22.519531 26.421875 -24.25 C 24.691406 -25.976562 22.585938 -26.84375 20.109375 -26.84375 C 17.585938 -26.75 15.488281 -25.863281 13.8125 -24.1875 C 12.03125 -22.40625 11.1875 -20.300781 11.28125 -17.875 L 11.28125 -17.796875 L 11.21875 -17.796875 L 11.21875 0 L 1.40625 0 L 1.40625 -36.234375 L 11.21875 -36.234375 L 11.21875 -31.546875 C 13.414062 -34.160156 16.359375 -35.628906 20.046875 -35.953125 Z M 20.046875 -35.953125 "/></g></g></g><g fill="#50556e" fill-opacity="1"><g transform="translate(447.059188, 876.498956)"><g><path d="M 13.875 0 L 13.875 -10.9375 L 24.8125 -10.9375 L 24.8125 0 Z M 35.890625 -37.21875 C 35.890625 -35.351562 35.445312 -33.390625 34.5625 -31.328125 C 33.664062 -29.273438 32.472656 -27.5 30.984375 -26 L 24.8125 -19.84375 L 24.8125 -16.328125 L 13.875 -16.328125 L 13.875 -22.5 L 21.453125 -29.578125 C 24.578125 -32.753906 26.140625 -35.300781 26.140625 -37.21875 C 26.140625 -38.90625 25.488281 -40.285156 24.1875 -41.359375 C 22.875 -42.429688 21.144531 -42.96875 19 -42.96875 C 16.9375 -42.96875 15.226562 -42.382812 13.875 -41.21875 C 12.570312 -40.09375 11.921875 -38.757812 11.921875 -37.21875 L 2.109375 -37.21875 C 2.109375 -38.476562 2.550781 -40.207031 3.4375 -42.40625 C 4.28125 -44.414062 5.492188 -46.210938 7.078125 -47.796875 C 8.523438 -49.253906 10.300781 -50.472656 12.40625 -51.453125 C 14.644531 -52.335938 16.84375 -52.78125 19 -52.78125 C 21.195312 -52.78125 23.390625 -52.335938 25.578125 -51.453125 C 27.679688 -50.515625 29.484375 -49.296875 30.984375 -47.796875 C 32.523438 -46.253906 33.71875 -44.457031 34.5625 -42.40625 C 35.445312 -40.351562 35.890625 -38.625 35.890625 -37.21875 Z M 35.890625 -37.21875 "/></g></g></g><g fill="#50556e" fill-opacity="1"><g transform="translate(487.348357, 876.498956)"><g/></g></g><g fill="#50556e" fill-opacity="1"><g transform="translate(507.87884, 876.498956)"><g><path d="M 1.046875 -45.5625 L 11.984375 -45.5625 L 11.984375 0 L 1.046875 0 Z M 1.046875 -45.5625 "/></g></g></g><g fill="#50556e" fill-opacity="1"><g transform="translate(523.224436, 876.498956)"><g><path d="M 2.109375 -43.875 L 11.921875 -43.875 L 11.921875 -23.90625 L 2.109375 -23.90625 Z M 2.109375 -43.875 "/></g></g></g><g fill="#50556e" fill-opacity="1"><g transform="translate(539.550935, 876.498956)"><g><path d="M 46.265625 -36.171875 C 51.117188 -36.210938 55.066406 -34.765625 58.109375 -31.828125 C 61.378906 -28.742188 63.015625 -24.421875 63.015625 -18.859375 L 63.015625 0 L 53.90625 0 L 53.90625 -18.21875 C 53.90625 -18.925781 53.785156 -19.722656 53.546875 -20.609375 C 53.222656 -21.679688 52.78125 -22.640625 52.21875 -23.484375 C 50.726562 -25.867188 48.53125 -27.0625 45.625 -27.0625 C 42.539062 -27.0625 40.300781 -25.867188 38.90625 -23.484375 C 38.382812 -22.597656 38.007812 -21.59375 37.78125 -20.46875 C 37.59375 -19.675781 37.5 -18.878906 37.5 -18.078125 L 37.5 0 L 28.3125 0 L 28.3125 -18.21875 C 28.3125 -18.925781 28.195312 -19.722656 27.96875 -20.609375 C 27.6875 -21.679688 27.265625 -22.640625 26.703125 -23.484375 C 25.160156 -25.867188 22.960938 -27.0625 20.109375 -27.0625 C 16.984375 -27.0625 14.71875 -25.867188 13.3125 -23.484375 C 12.800781 -22.597656 12.429688 -21.59375 12.203125 -20.46875 C 12.015625 -19.675781 11.921875 -18.878906 11.921875 -18.078125 L 11.921875 0 L 2.109375 0 L 2.109375 -36.234375 L 11.921875 -36.234375 L 11.921875 -32.453125 C 14.203125 -34.929688 17.144531 -36.171875 20.75 -36.171875 C 26.03125 -36.265625 30.304688 -34.226562 33.578125 -30.0625 L 36.515625 -32.796875 C 39.273438 -35.046875 42.523438 -36.171875 46.265625 -36.171875 Z M 46.265625 -36.171875 "/></g></g></g><g fill="#50556e" fill-opacity="1"><g transform="translate(606.955771, 876.498956)"><g/></g></g><g fill="#50556e" fill-opacity="1"><g transform="translate(627.486254, 876.498956)"><g><path d="M 40.71875 -5.75 C 36.28125 -2.050781 31.210938 -0.203125 25.515625 -0.203125 C 19.066406 -0.203125 13.550781 -2.492188 8.96875 -7.078125 C 4.394531 -11.660156 2.109375 -17.175781 2.109375 -23.625 C 2.109375 -30.113281 4.394531 -35.648438 8.96875 -40.234375 C 13.550781 -44.816406 19.066406 -47.109375 25.515625 -47.109375 C 31.265625 -47.109375 36.332031 -45.238281 40.71875 -41.5 L 33.71875 -34.5625 C 31.332031 -36.382812 28.597656 -37.296875 25.515625 -37.296875 C 21.773438 -37.296875 18.570312 -35.960938 15.90625 -33.296875 C 13.25 -30.628906 11.921875 -27.40625 11.921875 -23.625 C 11.921875 -19.882812 13.25 -16.679688 15.90625 -14.015625 C 18.570312 -11.347656 21.773438 -10.015625 25.515625 -10.015625 C 28.597656 -10.015625 31.332031 -10.925781 33.71875 -12.75 Z M 40.71875 -5.75 "/></g></g></g><g fill="#50556e" fill-opacity="1"><g transform="translate(674.712017, 876.498956)"><g><path d="M 11.84375 -48.859375 L 11.84375 -40.578125 L 2.109375 -40.578125 L 2.109375 -48.859375 Z M 11.921875 -36.03125 L 11.921875 0 L 2.109375 0 L 2.109375 -36.03125 Z M 11.921875 -36.03125 "/></g></g></g><g fill="#50556e" fill-opacity="1"><g transform="translate(691.038516, 876.498956)"><g><path d="M 20.046875 -35.953125 C 25.179688 -36.378906 29.429688 -35.050781 32.796875 -31.96875 C 36.398438 -28.644531 38.203125 -23.992188 38.203125 -18.015625 L 38.203125 0 L 29.09375 0 L 29.09375 -17.796875 L 29.015625 -17.796875 L 29.015625 -17.9375 C 29.015625 -20.414062 28.148438 -22.519531 26.421875 -24.25 C 24.691406 -25.976562 22.585938 -26.84375 20.109375 -26.84375 C 17.585938 -26.75 15.488281 -25.863281 13.8125 -24.1875 C 12.03125 -22.40625 11.1875 -20.300781 11.28125 -17.875 L 11.28125 -17.796875 L 11.21875 -17.796875 L 11.21875 0 L 1.40625 0 L 1.40625 -36.234375 L 11.21875 -36.234375 L 11.21875 -31.546875 C 13.414062 -34.160156 16.359375 -35.628906 20.046875 -35.953125 Z M 20.046875 -35.953125 "/></g></g></g><g fill="#50556e" fill-opacity="1"><g transform="translate(732.939225, 876.498956)"><g><path d="M 30.34375 0 L 30.34375 -4.140625 C 26.976562 -1.378906 23.171875 0 18.921875 0 C 13.972656 0.0390625 9.722656 -1.6875 6.171875 -5.1875 C 2.617188 -8.6875 0.816406 -12.9375 0.765625 -17.9375 C 0.722656 -22.894531 2.453125 -27.148438 5.953125 -30.703125 C 9.460938 -34.253906 13.71875 -36.050781 18.71875 -36.09375 C 23.0625 -36.09375 26.914062 -34.71875 30.28125 -31.96875 L 30.28125 -48.921875 L 40.09375 -48.921875 L 40.15625 0 Z M 25.15625 -11.78125 C 26.882812 -13.507812 27.75 -15.609375 27.75 -18.078125 C 27.65625 -20.609375 26.769531 -22.710938 25.09375 -24.390625 C 23.320312 -26.078125 21.21875 -26.921875 18.78125 -26.921875 C 16.300781 -26.921875 14.203125 -26.054688 12.484375 -24.328125 C 10.753906 -22.410156 9.910156 -20.304688 9.953125 -18.015625 C 9.953125 -15.535156 10.816406 -13.429688 12.546875 -11.703125 C 14.273438 -9.972656 16.378906 -9.109375 18.859375 -9.109375 C 21.378906 -9.203125 23.476562 -10.09375 25.15625 -11.78125 Z M 25.15625 -11.78125 "/></g></g></g><g fill="#50556e" fill-opacity="1"><g transform="translate(777.502424, 876.498956)"><g><path d="M 36.09375 -36.171875 L 21.875 1.609375 C 20.332031 5.347656 17.878906 8.316406 14.515625 10.515625 C 11.148438 12.710938 7.476562 13.765625 3.5 13.671875 L 3.5 3.859375 C 4.945312 3.898438 6.394531 3.59375 7.84375 2.9375 C 9.90625 2.007812 11.453125 0.539062 12.484375 -1.46875 L 14.4375 -6.875 L 2.109375 -36.171875 L 12.890625 -36.171875 L 19.421875 -20.390625 L 25.234375 -36.171875 Z M 36.09375 -36.171875 "/></g></g></g><g fill="#50556e" fill-opacity="1"><g transform="translate(818.071888, 876.498956)"><g><path d="M 2.109375 -9.8125 L 11.921875 -9.8125 L 11.921875 0 L 9.25 5.953125 L 4.203125 5.953125 L 6.9375 0 L 2.109375 0 Z M 2.109375 -9.8125 "/></g></g></g><g fill="#50556e" fill-opacity="1"><g transform="translate(834.398387, 876.498956)"><g/></g></g><g fill="#50556e" fill-opacity="1"><g transform="translate(854.928833, 876.498956)"><g><path d="M 1.046875 -45.5625 L 11.984375 -45.5625 L 11.984375 0 L 1.046875 0 Z M 1.046875 -45.5625 "/></g></g></g><g fill="#50556e" fill-opacity="1"><g transform="translate(870.274392, 876.498956)"><g/></g></g><g fill="#50556e" fill-opacity="1"><g transform="translate(890.804838, 876.498956)"><g><path d="M 30.984375 -4.34375 C 27.566406 -1.445312 23.59375 0 19.0625 0 C 14.0625 -0.0390625 9.8125 -1.835938 6.3125 -5.390625 C 2.800781 -8.941406 1.070312 -13.195312 1.125 -18.15625 C 1.164062 -23.15625 2.960938 -27.40625 6.515625 -30.90625 C 10.066406 -34.414062 14.320312 -36.144531 19.28125 -36.09375 C 23.757812 -36.050781 27.679688 -34.554688 31.046875 -31.609375 L 24.53125 -25.15625 C 22.945312 -26.332031 21.171875 -26.921875 19.203125 -26.921875 C 16.773438 -26.921875 14.671875 -26.078125 12.890625 -24.390625 C 11.160156 -22.660156 10.296875 -20.554688 10.296875 -18.078125 C 10.203125 -15.648438 11.046875 -13.550781 12.828125 -11.78125 C 14.503906 -10.09375 16.609375 -9.203125 19.140625 -9.109375 C 21.097656 -9.109375 22.875 -9.691406 24.46875 -10.859375 Z M 30.984375 -4.34375 "/></g></g></g><g fill="#50556e" fill-opacity="1"><g transform="translate(925.2084, 876.498956)"><g><path d="M 18.71875 -36.09375 C 23.71875 -36.144531 27.96875 -34.414062 31.46875 -30.90625 C 35.019531 -27.351562 36.796875 -23.101562 36.796875 -18.15625 C 36.847656 -13.15625 35.117188 -8.898438 31.609375 -5.390625 C 28.109375 -1.835938 23.878906 -0.0390625 18.921875 0 C 13.921875 0.0390625 9.644531 -1.6875 6.09375 -5.1875 C 2.539062 -8.6875 0.765625 -12.9375 0.765625 -17.9375 C 0.722656 -22.9375 2.453125 -27.191406 5.953125 -30.703125 C 9.460938 -34.253906 13.71875 -36.050781 18.71875 -36.09375 Z M 25.09375 -11.78125 C 26.820312 -13.507812 27.6875 -15.609375 27.6875 -18.078125 C 27.6875 -20.515625 26.796875 -22.617188 25.015625 -24.390625 C 23.242188 -26.078125 21.144531 -26.921875 18.71875 -26.921875 C 16.28125 -26.921875 14.203125 -26.054688 12.484375 -24.328125 C 10.753906 -22.503906 9.890625 -20.398438 9.890625 -18.015625 C 9.890625 -15.585938 10.773438 -13.484375 12.546875 -11.703125 C 14.273438 -9.972656 16.378906 -9.109375 18.859375 -9.109375 C 21.378906 -9.203125 23.457031 -10.09375 25.09375 -11.78125 Z M 25.09375 -11.78125 "/></g></g></g><g fill="#50556e" fill-opacity="1"><g transform="translate(965.077181, 876.498956)"><g><path d="M 2.109375 -36.234375 L 11.21875 -36.234375 L 11.21875 -18.015625 C 11.21875 -17.316406 11.332031 -16.519531 11.5625 -15.625 C 11.84375 -14.550781 12.265625 -13.570312 12.828125 -12.6875 C 14.367188 -10.351562 16.566406 -9.1875 19.421875 -9.1875 C 22.546875 -9.1875 24.8125 -10.375 26.21875 -12.75 C 26.726562 -13.59375 27.101562 -14.578125 27.34375 -15.703125 C 27.519531 -16.492188 27.609375 -17.285156 27.609375 -18.078125 L 27.609375 -36.234375 L 37.4375 -36.234375 L 37.4375 0 L 27.609375 0 L 27.609375 -3.78125 C 25.328125 -1.257812 22.382812 0 18.78125 0 C 14.15625 0.0390625 10.234375 -1.617188 7.015625 -4.984375 C 3.742188 -8.296875 2.109375 -12.40625 2.109375 -17.3125 Z M 2.109375 -36.234375 "/></g></g></g><g fill="#50556e" fill-opacity="1"><g transform="translate(1006.907771, 876.498956)"><g><path d="M 11.921875 -48.71875 L 11.921875 0 L 2.109375 0 L 2.109375 -48.71875 Z M 11.921875 -48.71875 "/></g></g></g><g fill="#50556e" fill-opacity="1"><g transform="translate(1023.23427, 876.498956)"><g><path d="M 30.34375 0 L 30.34375 -4.140625 C 26.976562 -1.378906 23.171875 0 18.921875 0 C 13.972656 0.0390625 9.722656 -1.6875 6.171875 -5.1875 C 2.617188 -8.6875 0.816406 -12.9375 0.765625 -17.9375 C 0.722656 -22.894531 2.453125 -27.148438 5.953125 -30.703125 C 9.460938 -34.253906 13.71875 -36.050781 18.71875 -36.09375 C 23.0625 -36.09375 26.914062 -34.71875 30.28125 -31.96875 L 30.28125 -48.921875 L 40.09375 -48.921875 L 40.15625 0 Z M 25.15625 -11.78125 C 26.882812 -13.507812 27.75 -15.609375 27.75 -18.078125 C 27.65625 -20.609375 26.769531 -22.710938 25.09375 -24.390625 C 23.320312 -26.078125 21.21875 -26.921875 18.78125 -26.921875 C 16.300781 -26.921875 14.203125 -26.054688 12.484375 -24.328125 C 10.753906 -22.410156 9.910156 -20.304688 9.953125 -18.015625 C 9.953125 -15.535156 10.816406 -13.429688 12.546875 -11.703125 C 14.273438 -9.972656 16.378906 -9.109375 18.859375 -9.109375 C 21.378906 -9.203125 23.476562 -10.09375 25.15625 -11.78125 Z M 25.15625 -11.78125 "/></g></g></g><g fill="#50556e" fill-opacity="1"><g transform="translate(137.497807, 973.141969)"><g><path d="M 16.6875 0 C 14.25 0 12.117188 -0.375 10.296875 -1.125 C 8.847656 -1.632812 7.351562 -2.59375 5.8125 -4 C 3.15625 -6.46875 1.941406 -9.597656 2.171875 -13.390625 L 2.171875 -14.15625 L 10.015625 -14.015625 L 10.65625 -14.015625 L 10.65625 -13.453125 C 10.695312 -12.285156 10.953125 -11.328125 11.421875 -10.578125 C 12.210938 -9.222656 13.96875 -8.546875 16.6875 -8.546875 C 18.925781 -8.546875 20.535156 -8.804688 21.515625 -9.328125 C 22.035156 -9.554688 22.382812 -9.859375 22.5625 -10.234375 C 22.65625 -10.367188 22.703125 -10.507812 22.703125 -10.65625 L 22.78125 -11 C 22.78125 -11.988281 22.007812 -12.785156 20.46875 -13.390625 C 19.863281 -13.617188 19.160156 -13.804688 18.359375 -13.953125 C 17.753906 -14.085938 17.078125 -14.203125 16.328125 -14.296875 C 13.523438 -14.578125 11.191406 -15.140625 9.328125 -15.984375 C 7.453125 -16.734375 5.910156 -17.757812 4.703125 -19.0625 C 3.015625 -20.976562 2.171875 -23.175781 2.171875 -25.65625 C 2.171875 -27.195312 2.453125 -28.625 3.015625 -29.9375 C 3.429688 -30.957031 3.992188 -31.863281 4.703125 -32.65625 C 7.222656 -35.5625 11.265625 -37.015625 16.828125 -37.015625 C 20.140625 -37.015625 22.941406 -36.359375 25.234375 -35.046875 C 27.003906 -34.066406 28.429688 -32.734375 29.515625 -31.046875 C 30.347656 -29.785156 30.929688 -28.316406 31.265625 -26.640625 C 31.359375 -26.078125 31.425781 -25.535156 31.46875 -25.015625 L 31.46875 -23.546875 L 22.984375 -23.546875 L 22.984375 -24.609375 C 22.941406 -24.796875 22.921875 -24.976562 22.921875 -25.15625 C 22.773438 -25.675781 22.585938 -26.097656 22.359375 -26.421875 C 21.328125 -27.828125 19.484375 -28.53125 16.828125 -28.53125 C 12.898438 -28.53125 10.9375 -27.710938 10.9375 -26.078125 C 10.9375 -25.234375 11.40625 -24.554688 12.34375 -24.046875 C 13.320312 -23.429688 14.976562 -22.984375 17.3125 -22.703125 C 22.6875 -22.148438 26.585938 -20.445312 29.015625 -17.59375 C 30.648438 -15.675781 31.46875 -13.476562 31.46875 -11 L 31.46875 -10.515625 L 31.40625 -9.890625 C 31.40625 -9.273438 31.332031 -8.710938 31.1875 -8.203125 C 30.8125 -6.703125 30.113281 -5.367188 29.09375 -4.203125 C 27.925781 -2.804688 26.289062 -1.753906 24.1875 -1.046875 C 22.082031 -0.347656 19.582031 0 16.6875 0 Z M 16.6875 0 "/></g></g></g><g fill="#50556e" fill-opacity="1"><g transform="translate(173.372805, 973.141969)"><g><path d="M 38.90625 0 L 29.796875 0 L 29.796875 -17.796875 L 29.71875 -17.796875 L 29.71875 -18.015625 C 29.71875 -20.441406 28.851562 -22.519531 27.125 -24.25 C 25.394531 -25.976562 23.289062 -26.84375 20.8125 -26.84375 C 18.382812 -26.84375 16.285156 -25.957031 14.515625 -24.1875 C 12.734375 -22.40625 11.890625 -20.300781 11.984375 -17.875 L 11.984375 -17.796875 L 11.921875 -17.796875 L 11.921875 0 L 2.109375 0 L 2.109375 -45.5625 L 11.921875 -45.5625 L 11.921875 -31.546875 C 14.109375 -34.160156 17.050781 -35.628906 20.75 -35.953125 C 25.882812 -36.378906 30.132812 -35.050781 33.5 -31.96875 C 37.101562 -28.644531 38.90625 -23.992188 38.90625 -18.015625 Z M 38.90625 0 "/></g></g></g><g fill="#50556e" fill-opacity="1"><g transform="translate(216.674833, 973.141969)"><g><path d="M 18.71875 -36.09375 C 23.71875 -36.144531 27.96875 -34.414062 31.46875 -30.90625 C 35.019531 -27.351562 36.796875 -23.101562 36.796875 -18.15625 C 36.847656 -13.15625 35.117188 -8.898438 31.609375 -5.390625 C 28.109375 -1.835938 23.878906 -0.0390625 18.921875 0 C 13.921875 0.0390625 9.644531 -1.6875 6.09375 -5.1875 C 2.539062 -8.6875 0.765625 -12.9375 0.765625 -17.9375 C 0.722656 -22.9375 2.453125 -27.191406 5.953125 -30.703125 C 9.460938 -34.253906 13.71875 -36.050781 18.71875 -36.09375 Z M 25.09375 -11.78125 C 26.820312 -13.507812 27.6875 -15.609375 27.6875 -18.078125 C 27.6875 -20.515625 26.796875 -22.617188 25.015625 -24.390625 C 23.242188 -26.078125 21.144531 -26.921875 18.71875 -26.921875 C 16.28125 -26.921875 14.203125 -26.054688 12.484375 -24.328125 C 10.753906 -22.503906 9.890625 -20.398438 9.890625 -18.015625 C 9.890625 -15.585938 10.773438 -13.484375 12.546875 -11.703125 C 14.273438 -9.972656 16.378906 -9.109375 18.859375 -9.109375 C 21.378906 -9.203125 23.457031 -10.09375 25.09375 -11.78125 Z M 25.09375 -11.78125 "/></g></g></g><g fill="#50556e" fill-opacity="1"><g transform="translate(256.543605, 973.141969)"><g><path d="M 52.359375 -36.59375 L 32.734375 0 L 32.65625 -0.0625 L 26.359375 -11.84375 L 19.984375 0 L 19.984375 -0.0625 L 0.34375 -36.59375 L 10.4375 -36.59375 L 19.984375 -18.296875 L 21.375 -21.03125 L 13.03125 -36.59375 L 23.125 -36.59375 L 32.734375 -18.296875 L 42.265625 -36.59375 Z M 52.359375 -36.59375 "/></g></g></g><g fill="#50556e" fill-opacity="1"><g transform="translate(311.546693, 973.141969)"><g/></g></g><g fill="#50556e" fill-opacity="1"><g transform="translate(332.077158, 973.141969)"><g><path d="M 36.09375 -36.171875 L 21.875 1.609375 C 20.332031 5.347656 17.878906 8.316406 14.515625 10.515625 C 11.148438 12.710938 7.476562 13.765625 3.5 13.671875 L 3.5 3.859375 C 4.945312 3.898438 6.394531 3.59375 7.84375 2.9375 C 9.90625 2.007812 11.453125 0.539062 12.484375 -1.46875 L 14.4375 -6.875 L 2.109375 -36.171875 L 12.890625 -36.171875 L 19.421875 -20.390625 L 25.234375 -36.171875 Z M 36.09375 -36.171875 "/></g></g></g><g fill="#50556e" fill-opacity="1"><g transform="translate(372.646605, 973.141969)"><g><path d="M 18.71875 -36.09375 C 23.71875 -36.144531 27.96875 -34.414062 31.46875 -30.90625 C 35.019531 -27.351562 36.796875 -23.101562 36.796875 -18.15625 C 36.847656 -13.15625 35.117188 -8.898438 31.609375 -5.390625 C 28.109375 -1.835938 23.878906 -0.0390625 18.921875 0 C 13.921875 0.0390625 9.644531 -1.6875 6.09375 -5.1875 C 2.539062 -8.6875 0.765625 -12.9375 0.765625 -17.9375 C 0.722656 -22.9375 2.453125 -27.191406 5.953125 -30.703125 C 9.460938 -34.253906 13.71875 -36.050781 18.71875 -36.09375 Z M 25.09375 -11.78125 C 26.820312 -13.507812 27.6875 -15.609375 27.6875 -18.078125 C 27.6875 -20.515625 26.796875 -22.617188 25.015625 -24.390625 C 23.242188 -26.078125 21.144531 -26.921875 18.71875 -26.921875 C 16.28125 -26.921875 14.203125 -26.054688 12.484375 -24.328125 C 10.753906 -22.503906 9.890625 -20.398438 9.890625 -18.015625 C 9.890625 -15.585938 10.773438 -13.484375 12.546875 -11.703125 C 14.273438 -9.972656 16.378906 -9.109375 18.859375 -9.109375 C 21.378906 -9.203125 23.457031 -10.09375 25.09375 -11.78125 Z M 25.09375 -11.78125 "/></g></g></g><g fill="#50556e" fill-opacity="1"><g transform="translate(412.515386, 973.141969)"><g><path d="M 2.109375 -36.234375 L 11.21875 -36.234375 L 11.21875 -18.015625 C 11.21875 -17.316406 11.332031 -16.519531 11.5625 -15.625 C 11.84375 -14.550781 12.265625 -13.570312 12.828125 -12.6875 C 14.367188 -10.351562 16.566406 -9.1875 19.421875 -9.1875 C 22.546875 -9.1875 24.8125 -10.375 26.21875 -12.75 C 26.726562 -13.59375 27.101562 -14.578125 27.34375 -15.703125 C 27.519531 -16.492188 27.609375 -17.285156 27.609375 -18.078125 L 27.609375 -36.234375 L 37.4375 -36.234375 L 37.4375 0 L 27.609375 0 L 27.609375 -3.78125 C 25.328125 -1.257812 22.382812 0 18.78125 0 C 14.15625 0.0390625 10.234375 -1.617188 7.015625 -4.984375 C 3.742188 -8.296875 2.109375 -12.40625 2.109375 -17.3125 Z M 2.109375 -36.234375 "/></g></g></g><g fill="#50556e" fill-opacity="1"><g transform="translate(454.346012, 973.141969)"><g/></g></g><g fill="#50556e" fill-opacity="1"><g transform="translate(474.876495, 973.141969)"><g><path d="M 11.84375 -48.859375 L 11.84375 -40.578125 L 2.109375 -40.578125 L 2.109375 -48.859375 Z M 11.921875 -36.03125 L 11.921875 0 L 2.109375 0 L 2.109375 -36.03125 Z M 11.921875 -36.03125 "/></g></g></g><g fill="#50556e" fill-opacity="1"><g transform="translate(491.202994, 973.141969)"><g><path d="M 20.046875 -35.953125 C 25.179688 -36.378906 29.429688 -35.050781 32.796875 -31.96875 C 36.398438 -28.644531 38.203125 -23.992188 38.203125 -18.015625 L 38.203125 0 L 29.09375 0 L 29.09375 -17.796875 L 29.015625 -17.796875 L 29.015625 -17.9375 C 29.015625 -20.414062 28.148438 -22.519531 26.421875 -24.25 C 24.691406 -25.976562 22.585938 -26.84375 20.109375 -26.84375 C 17.585938 -26.75 15.488281 -25.863281 13.8125 -24.1875 C 12.03125 -22.40625 11.1875 -20.300781 11.28125 -17.875 L 11.28125 -17.796875 L 11.21875 -17.796875 L 11.21875 0 L 1.40625 0 L 1.40625 -36.234375 L 11.21875 -36.234375 L 11.21875 -31.546875 C 13.414062 -34.160156 16.359375 -35.628906 20.046875 -35.953125 Z M 20.046875 -35.953125 "/></g></g></g><g fill="#50556e" fill-opacity="1"><g transform="translate(533.103703, 973.141969)"><g><path d="M 30.984375 -4.34375 C 27.566406 -1.445312 23.59375 0 19.0625 0 C 14.0625 -0.0390625 9.8125 -1.835938 6.3125 -5.390625 C 2.800781 -8.941406 1.070312 -13.195312 1.125 -18.15625 C 1.164062 -23.15625 2.960938 -27.40625 6.515625 -30.90625 C 10.066406 -34.414062 14.320312 -36.144531 19.28125 -36.09375 C 23.757812 -36.050781 27.679688 -34.554688 31.046875 -31.609375 L 24.53125 -25.15625 C 22.945312 -26.332031 21.171875 -26.921875 19.203125 -26.921875 C 16.773438 -26.921875 14.671875 -26.078125 12.890625 -24.390625 C 11.160156 -22.660156 10.296875 -20.554688 10.296875 -18.078125 C 10.203125 -15.648438 11.046875 -13.550781 12.828125 -11.78125 C 14.503906 -10.09375 16.609375 -9.203125 19.140625 -9.109375 C 21.097656 -9.109375 22.875 -9.691406 24.46875 -10.859375 Z M 30.984375 -4.34375 "/></g></g></g><g fill="#50556e" fill-opacity="1"><g transform="translate(567.507302, 973.141969)"><g><path d="M 11.921875 -30.703125 C 12.710938 -32.941406 14.039062 -34.503906 15.90625 -35.390625 C 17.726562 -36.285156 20.460938 -36.734375 24.109375 -36.734375 L 24.109375 -26.703125 C 20.554688 -26.703125 17.585938 -25.488281 15.203125 -23.0625 C 13.015625 -20.914062 11.921875 -18.554688 11.921875 -15.984375 L 11.921875 0 L 2.109375 0 L 2.109375 -36.09375 L 11.921875 -36.09375 Z M 11.921875 -30.703125 "/></g></g></g><g fill="#50556e" fill-opacity="1"><g transform="translate(594.974343, 973.141969)"><g><path d="M 36.875 -16.46875 C 36.914062 -15.488281 36.914062 -14.90625 36.875 -14.71875 L 10.515625 -14.796875 C 10.890625 -13.710938 11.566406 -12.679688 12.546875 -11.703125 C 14.367188 -9.972656 16.472656 -9.109375 18.859375 -9.109375 C 21.378906 -9.203125 23.476562 -10.09375 25.15625 -11.78125 L 25.4375 -12.0625 L 34.5625 -9.1875 C 32.550781 -6.050781 30.445312 -3.804688 28.25 -2.453125 C 25.769531 -0.859375 22.660156 -0.0390625 18.921875 0 C 13.972656 0.0390625 9.722656 -1.6875 6.171875 -5.1875 C 2.617188 -8.6875 0.816406 -12.9375 0.765625 -17.9375 C 0.722656 -22.894531 2.453125 -27.148438 5.953125 -30.703125 C 9.460938 -34.253906 13.71875 -36.050781 18.71875 -36.09375 C 23.664062 -36.144531 27.914062 -34.414062 31.46875 -30.90625 C 35.019531 -27.40625 36.820312 -23.15625 36.875 -18.15625 Z M 18.78125 -26.921875 C 16.300781 -26.921875 14.203125 -26.054688 12.484375 -24.328125 C 11.585938 -23.335938 10.953125 -22.351562 10.578125 -21.375 L 27.0625 -21.375 C 26.6875 -22.351562 26.03125 -23.359375 25.09375 -24.390625 C 23.320312 -26.078125 21.21875 -26.921875 18.78125 -26.921875 Z M 18.78125 -26.921875 "/></g></g></g><g fill="#50556e" fill-opacity="1"><g transform="translate(634.913207, 973.141969)"><g><path d="M 30.34375 0 L 30.34375 -4.140625 C 26.976562 -1.378906 23.171875 0 18.921875 0 C 13.972656 0.0390625 9.722656 -1.6875 6.171875 -5.1875 C 2.617188 -8.6875 0.816406 -12.9375 0.765625 -17.9375 C 0.722656 -22.894531 2.453125 -27.148438 5.953125 -30.703125 C 9.460938 -34.253906 13.71875 -36.050781 18.71875 -36.09375 C 23.0625 -36.09375 26.914062 -34.71875 30.28125 -31.96875 L 30.28125 -48.921875 L 40.09375 -48.921875 L 40.15625 0 Z M 25.15625 -11.78125 C 26.882812 -13.507812 27.75 -15.609375 27.75 -18.078125 C 27.65625 -20.609375 26.769531 -22.710938 25.09375 -24.390625 C 23.320312 -26.078125 21.21875 -26.921875 18.78125 -26.921875 C 16.300781 -26.921875 14.203125 -26.054688 12.484375 -24.328125 C 10.753906 -22.410156 9.910156 -20.304688 9.953125 -18.015625 C 9.953125 -15.535156 10.816406 -13.429688 12.546875 -11.703125 C 14.273438 -9.972656 16.378906 -9.109375 18.859375 -9.109375 C 21.378906 -9.203125 23.476562 -10.09375 25.15625 -11.78125 Z M 25.15625 -11.78125 "/></g></g></g><g fill="#50556e" fill-opacity="1"><g transform="translate(679.476443, 973.141969)"><g><path d="M 11.84375 -48.859375 L 11.84375 -40.578125 L 2.109375 -40.578125 L 2.109375 -48.859375 Z M 11.921875 -36.03125 L 11.921875 0 L 2.109375 0 L 2.109375 -36.03125 Z M 11.921875 -36.03125 "/></g></g></g><g fill="#50556e" fill-opacity="1"><g transform="translate(695.802942, 973.141969)"><g><path d="M 23.625 -36.09375 C 28.625 -36.050781 32.875 -34.253906 36.375 -30.703125 C 39.882812 -27.148438 41.613281 -22.894531 41.5625 -17.9375 C 41.519531 -12.9375 39.722656 -8.6875 36.171875 -5.1875 C 32.617188 -1.6875 28.363281 0.0390625 23.40625 0 C 19.15625 0 15.347656 -1.378906 11.984375 -4.140625 L 11.984375 0 L 2.171875 0 L 2.109375 -48.921875 L 11.921875 -48.921875 L 11.921875 -31.828125 C 15.285156 -34.671875 19.1875 -36.09375 23.625 -36.09375 Z M 29.796875 -11.703125 C 31.472656 -13.390625 32.359375 -15.492188 32.453125 -18.015625 C 32.453125 -20.398438 31.585938 -22.503906 29.859375 -24.328125 C 28.128906 -26.054688 26.023438 -26.921875 23.546875 -26.921875 C 21.117188 -26.921875 19.019531 -26.078125 17.25 -24.390625 C 15.519531 -22.660156 14.65625 -20.554688 14.65625 -18.078125 C 14.5625 -15.648438 15.398438 -13.550781 17.171875 -11.78125 C 18.859375 -10.09375 20.960938 -9.203125 23.484375 -9.109375 C 25.960938 -9.109375 28.066406 -9.972656 29.796875 -11.703125 Z M 29.796875 -11.703125 "/></g></g></g><g fill="#50556e" fill-opacity="1"><g transform="translate(740.786566, 973.141969)"><g><path d="M 11.921875 -48.71875 L 11.921875 0 L 2.109375 0 L 2.109375 -48.71875 Z M 11.921875 -48.71875 "/></g></g></g><g fill="#50556e" fill-opacity="1"><g transform="translate(757.113028, 973.141969)"><g><path d="M 36.875 -16.46875 C 36.914062 -15.488281 36.914062 -14.90625 36.875 -14.71875 L 10.515625 -14.796875 C 10.890625 -13.710938 11.566406 -12.679688 12.546875 -11.703125 C 14.367188 -9.972656 16.472656 -9.109375 18.859375 -9.109375 C 21.378906 -9.203125 23.476562 -10.09375 25.15625 -11.78125 L 25.4375 -12.0625 L 34.5625 -9.1875 C 32.550781 -6.050781 30.445312 -3.804688 28.25 -2.453125 C 25.769531 -0.859375 22.660156 -0.0390625 18.921875 0 C 13.972656 0.0390625 9.722656 -1.6875 6.171875 -5.1875 C 2.617188 -8.6875 0.816406 -12.9375 0.765625 -17.9375 C 0.722656 -22.894531 2.453125 -27.148438 5.953125 -30.703125 C 9.460938 -34.253906 13.71875 -36.050781 18.71875 -36.09375 C 23.664062 -36.144531 27.914062 -34.414062 31.46875 -30.90625 C 35.019531 -27.40625 36.820312 -23.15625 36.875 -18.15625 Z M 18.78125 -26.921875 C 16.300781 -26.921875 14.203125 -26.054688 12.484375 -24.328125 C 11.585938 -23.335938 10.953125 -22.351562 10.578125 -21.375 L 27.0625 -21.375 C 26.6875 -22.351562 26.03125 -23.359375 25.09375 -24.390625 C 23.320312 -26.078125 21.21875 -26.921875 18.78125 -26.921875 Z M 18.78125 -26.921875 "/></g></g></g><g fill="#50556e" fill-opacity="1"><g transform="translate(797.051856, 973.141969)"><g/></g></g><g fill="#50556e" fill-opacity="1"><g transform="translate(817.582302, 973.141969)"><g><path d="M 28.109375 -36.09375 L 28.109375 -26.28125 L 20.046875 -26.28125 L 20.046875 0 L 10.234375 0 L 10.234375 -26.28125 L 2.109375 -26.28125 L 2.109375 -36.09375 L 10.234375 -36.09375 L 10.234375 -48.71875 L 20.046875 -48.71875 L 20.046875 -36.09375 Z M 28.109375 -36.09375 "/></g></g></g><g fill="#50556e" fill-opacity="1"><g transform="translate(850.094102, 973.141969)"><g><path d="M 38.90625 0 L 29.796875 0 L 29.796875 -17.796875 L 29.71875 -17.796875 L 29.71875 -18.015625 C 29.71875 -20.441406 28.851562 -22.519531 27.125 -24.25 C 25.394531 -25.976562 23.289062 -26.84375 20.8125 -26.84375 C 18.382812 -26.84375 16.285156 -25.957031 14.515625 -24.1875 C 12.734375 -22.40625 11.890625 -20.300781 11.984375 -17.875 L 11.984375 -17.796875 L 11.921875 -17.796875 L 11.921875 0 L 2.109375 0 L 2.109375 -45.5625 L 11.921875 -45.5625 L 11.921875 -31.546875 C 14.109375 -34.160156 17.050781 -35.628906 20.75 -35.953125 C 25.882812 -36.378906 30.132812 -35.050781 33.5 -31.96875 C 37.101562 -28.644531 38.90625 -23.992188 38.90625 -18.015625 Z M 38.90625 0 "/></g></g></g><g fill="#50556e" fill-opacity="1"><g transform="translate(893.396103, 973.141969)"><g><path d="M 11.84375 -48.859375 L 11.84375 -40.578125 L 2.109375 -40.578125 L 2.109375 -48.859375 Z M 11.921875 -36.03125 L 11.921875 0 L 2.109375 0 L 2.109375 -36.03125 Z M 11.921875 -36.03125 "/></g></g></g><g fill="#50556e" fill-opacity="1"><g transform="translate(909.722602, 973.141969)"><g><path d="M 20.046875 -35.953125 C 25.179688 -36.378906 29.429688 -35.050781 32.796875 -31.96875 C 36.398438 -28.644531 38.203125 -23.992188 38.203125 -18.015625 L 38.203125 0 L 29.09375 0 L 29.09375 -17.796875 L 29.015625 -17.796875 L 29.015625 -17.9375 C 29.015625 -20.414062 28.148438 -22.519531 26.421875 -24.25 C 24.691406 -25.976562 22.585938 -26.84375 20.109375 -26.84375 C 17.585938 -26.75 15.488281 -25.863281 13.8125 -24.1875 C 12.03125 -22.40625 11.1875 -20.300781 11.28125 -17.875 L 11.28125 -17.796875 L 11.21875 -17.796875 L 11.21875 0 L 1.40625 0 L 1.40625 -36.234375 L 11.21875 -36.234375 L 11.21875 -31.546875 C 13.414062 -34.160156 16.359375 -35.628906 20.046875 -35.953125 Z M 20.046875 -35.953125 "/></g></g></g><g fill="#50556e" fill-opacity="1"><g transform="translate(951.623311, 973.141969)"><g><path d="M 29.015625 -36.171875 L 38.203125 -36.171875 L 38.203125 -0.0625 C 38.203125 4.882812 36.445312 9.109375 32.9375 12.609375 C 29.476562 16.117188 25.273438 17.894531 20.328125 17.9375 C 15.703125 17.988281 11.660156 16.472656 8.203125 13.390625 C 4.785156 10.398438 2.820312 6.640625 2.3125 2.109375 L 11.5625 2.109375 C 11.894531 3.597656 12.691406 4.972656 13.953125 6.234375 C 15.679688 7.960938 17.78125 8.828125 20.25 8.828125 C 22.726562 8.828125 24.8125 7.941406 26.5 6.171875 C 28.226562 4.441406 29.09375 2.363281 29.09375 -0.0625 L 29.015625 -3.640625 C 26.628906 -1.253906 23.734375 -0.0625 20.328125 -0.0625 C 15.328125 -0.0195312 11.050781 -1.75 7.5 -5.25 C 3.945312 -8.757812 2.171875 -13.015625 2.171875 -18.015625 C 2.128906 -23.015625 3.859375 -27.265625 7.359375 -30.765625 C 10.859375 -34.316406 15.109375 -36.117188 20.109375 -36.171875 C 24.085938 -36.171875 27.054688 -34.929688 29.015625 -32.453125 Z M 29.015625 -19.140625 C 28.828125 -21.191406 27.960938 -22.96875 26.421875 -24.46875 C 24.648438 -26.144531 22.546875 -26.984375 20.109375 -26.984375 C 17.679688 -26.984375 15.601562 -26.117188 13.875 -24.390625 C 12.144531 -22.566406 11.28125 -20.460938 11.28125 -18.078125 C 11.28125 -15.648438 12.171875 -13.550781 13.953125 -11.78125 C 15.679688 -10.050781 17.78125 -9.1875 20.25 -9.1875 C 22.78125 -9.28125 24.863281 -10.164062 26.5 -11.84375 C 27.945312 -13.289062 28.785156 -15.019531 29.015625 -17.03125 Z M 29.015625 -19.140625 "/></g></g></g><g fill="#50556e" fill-opacity="1"><g transform="translate(994.224628, 973.141969)"><g><path d="M 16.6875 0 C 14.25 0 12.117188 -0.375 10.296875 -1.125 C 8.847656 -1.632812 7.351562 -2.59375 5.8125 -4 C 3.15625 -6.46875 1.941406 -9.597656 2.171875 -13.390625 L 2.171875 -14.15625 L 10.015625 -14.015625 L 10.65625 -14.015625 L 10.65625 -13.453125 C 10.695312 -12.285156 10.953125 -11.328125 11.421875 -10.578125 C 12.210938 -9.222656 13.96875 -8.546875 16.6875 -8.546875 C 18.925781 -8.546875 20.535156 -8.804688 21.515625 -9.328125 C 22.035156 -9.554688 22.382812 -9.859375 22.5625 -10.234375 C 22.65625 -10.367188 22.703125 -10.507812 22.703125 -10.65625 L 22.78125 -11 C 22.78125 -11.988281 22.007812 -12.785156 20.46875 -13.390625 C 19.863281 -13.617188 19.160156 -13.804688 18.359375 -13.953125 C 17.753906 -14.085938 17.078125 -14.203125 16.328125 -14.296875 C 13.523438 -14.578125 11.191406 -15.140625 9.328125 -15.984375 C 7.453125 -16.734375 5.910156 -17.757812 4.703125 -19.0625 C 3.015625 -20.976562 2.171875 -23.175781 2.171875 -25.65625 C 2.171875 -27.195312 2.453125 -28.625 3.015625 -29.9375 C 3.429688 -30.957031 3.992188 -31.863281 4.703125 -32.65625 C 7.222656 -35.5625 11.265625 -37.015625 16.828125 -37.015625 C 20.140625 -37.015625 22.941406 -36.359375 25.234375 -35.046875 C 27.003906 -34.066406 28.429688 -32.734375 29.515625 -31.046875 C 30.347656 -29.785156 30.929688 -28.316406 31.265625 -26.640625 C 31.359375 -26.078125 31.425781 -25.535156 31.46875 -25.015625 L 31.46875 -23.546875 L 22.984375 -23.546875 L 22.984375 -24.609375 C 22.941406 -24.796875 22.921875 -24.976562 22.921875 -25.15625 C 22.773438 -25.675781 22.585938 -26.097656 22.359375 -26.421875 C 21.328125 -27.828125 19.484375 -28.53125 16.828125 -28.53125 C 12.898438 -28.53125 10.9375 -27.710938 10.9375 -26.078125 C 10.9375 -25.234375 11.40625 -24.554688 12.34375 -24.046875 C 13.320312 -23.429688 14.976562 -22.984375 17.3125 -22.703125 C 22.6875 -22.148438 26.585938 -20.445312 29.015625 -17.59375 C 30.648438 -15.675781 31.46875 -13.476562 31.46875 -11 L 31.46875 -10.515625 L 31.40625 -9.890625 C 31.40625 -9.273438 31.332031 -8.710938 31.1875 -8.203125 C 30.8125 -6.703125 30.113281 -5.367188 29.09375 -4.203125 C 27.925781 -2.804688 26.289062 -1.753906 24.1875 -1.046875 C 22.082031 -0.347656 19.582031 0 16.6875 0 Z M 16.6875 0 "/></g></g></g><g fill="#50556e" fill-opacity="1"><g transform="translate(1030.099601, 973.141969)"><g><path d="M 11.921875 0 L 2.109375 0 L 2.109375 -9.8125 L 11.921875 -9.8125 Z M 11.921875 0 "/></g></g></g><g fill="#50556e" fill-opacity="1"><g transform="translate(137.497807, 1069.784981)"><g><path d="M 67.015625 -45.5625 L 42.484375 0 L 34.5625 -14.71875 L 26.640625 0 L 2.109375 -45.5625 L 14.71875 -45.5625 L 26.640625 -22.78125 L 28.390625 -26.140625 L 17.9375 -45.5625 L 30.5625 -45.5625 L 42.484375 -22.78125 L 54.390625 -45.5625 Z M 67.015625 -45.5625 "/></g></g></g><g fill="#50556e" fill-opacity="1"><g transform="translate(208.896406, 1069.784981)"><g><path d="M 36.875 -16.46875 C 36.914062 -15.488281 36.914062 -14.90625 36.875 -14.71875 L 10.515625 -14.796875 C 10.890625 -13.710938 11.566406 -12.679688 12.546875 -11.703125 C 14.367188 -9.972656 16.472656 -9.109375 18.859375 -9.109375 C 21.378906 -9.203125 23.476562 -10.09375 25.15625 -11.78125 L 25.4375 -12.0625 L 34.5625 -9.1875 C 32.550781 -6.050781 30.445312 -3.804688 28.25 -2.453125 C 25.769531 -0.859375 22.660156 -0.0390625 18.921875 0 C 13.972656 0.0390625 9.722656 -1.6875 6.171875 -5.1875 C 2.617188 -8.6875 0.816406 -12.9375 0.765625 -17.9375 C 0.722656 -22.894531 2.453125 -27.148438 5.953125 -30.703125 C 9.460938 -34.253906 13.71875 -36.050781 18.71875 -36.09375 C 23.664062 -36.144531 27.914062 -34.414062 31.46875 -30.90625 C 35.019531 -27.40625 36.820312 -23.15625 36.875 -18.15625 Z M 18.78125 -26.921875 C 16.300781 -26.921875 14.203125 -26.054688 12.484375 -24.328125 C 11.585938 -23.335938 10.953125 -22.351562 10.578125 -21.375 L 27.0625 -21.375 C 26.6875 -22.351562 26.03125 -23.359375 25.09375 -24.390625 C 23.320312 -26.078125 21.21875 -26.921875 18.78125 -26.921875 Z M 18.78125 -26.921875 "/></g></g></g><g fill="#50556e" fill-opacity="1"><g transform="translate(248.835262, 1069.784981)"><g><path d="M 11.921875 -48.71875 L 11.921875 0 L 2.109375 0 L 2.109375 -48.71875 Z M 11.921875 -48.71875 "/></g></g></g><g fill="#50556e" fill-opacity="1"><g transform="translate(265.161752, 1069.784981)"><g><path d="M 30.984375 -4.34375 C 27.566406 -1.445312 23.59375 0 19.0625 0 C 14.0625 -0.0390625 9.8125 -1.835938 6.3125 -5.390625 C 2.800781 -8.941406 1.070312 -13.195312 1.125 -18.15625 C 1.164062 -23.15625 2.960938 -27.40625 6.515625 -30.90625 C 10.066406 -34.414062 14.320312 -36.144531 19.28125 -36.09375 C 23.757812 -36.050781 27.679688 -34.554688 31.046875 -31.609375 L 24.53125 -25.15625 C 22.945312 -26.332031 21.171875 -26.921875 19.203125 -26.921875 C 16.773438 -26.921875 14.671875 -26.078125 12.890625 -24.390625 C 11.160156 -22.660156 10.296875 -20.554688 10.296875 -18.078125 C 10.203125 -15.648438 11.046875 -13.550781 12.828125 -11.78125 C 14.503906 -10.09375 16.609375 -9.203125 19.140625 -9.109375 C 21.097656 -9.109375 22.875 -9.691406 24.46875 -10.859375 Z M 30.984375 -4.34375 "/></g></g></g><g fill="#50556e" fill-opacity="1"><g transform="translate(299.565341, 1069.784981)"><g><path d="M 18.71875 -36.09375 C 23.71875 -36.144531 27.96875 -34.414062 31.46875 -30.90625 C 35.019531 -27.351562 36.796875 -23.101562 36.796875 -18.15625 C 36.847656 -13.15625 35.117188 -8.898438 31.609375 -5.390625 C 28.109375 -1.835938 23.878906 -0.0390625 18.921875 0 C 13.921875 0.0390625 9.644531 -1.6875 6.09375 -5.1875 C 2.539062 -8.6875 0.765625 -12.9375 0.765625 -17.9375 C 0.722656 -22.9375 2.453125 -27.191406 5.953125 -30.703125 C 9.460938 -34.253906 13.71875 -36.050781 18.71875 -36.09375 Z M 25.09375 -11.78125 C 26.820312 -13.507812 27.6875 -15.609375 27.6875 -18.078125 C 27.6875 -20.515625 26.796875 -22.617188 25.015625 -24.390625 C 23.242188 -26.078125 21.144531 -26.921875 18.71875 -26.921875 C 16.28125 -26.921875 14.203125 -26.054688 12.484375 -24.328125 C 10.753906 -22.503906 9.890625 -20.398438 9.890625 -18.015625 C 9.890625 -15.585938 10.773438 -13.484375 12.546875 -11.703125 C 14.273438 -9.972656 16.378906 -9.109375 18.859375 -9.109375 C 21.378906 -9.203125 23.457031 -10.09375 25.09375 -11.78125 Z M 25.09375 -11.78125 "/></g></g></g><g fill="#50556e" fill-opacity="1"><g transform="translate(339.434123, 1069.784981)"><g><path d="M 46.265625 -36.171875 C 51.117188 -36.210938 55.066406 -34.765625 58.109375 -31.828125 C 61.378906 -28.742188 63.015625 -24.421875 63.015625 -18.859375 L 63.015625 0 L 53.90625 0 L 53.90625 -18.21875 C 53.90625 -18.925781 53.785156 -19.722656 53.546875 -20.609375 C 53.222656 -21.679688 52.78125 -22.640625 52.21875 -23.484375 C 50.726562 -25.867188 48.53125 -27.0625 45.625 -27.0625 C 42.539062 -27.0625 40.300781 -25.867188 38.90625 -23.484375 C 38.382812 -22.597656 38.007812 -21.59375 37.78125 -20.46875 C 37.59375 -19.675781 37.5 -18.878906 37.5 -18.078125 L 37.5 0 L 28.3125 0 L 28.3125 -18.21875 C 28.3125 -18.925781 28.195312 -19.722656 27.96875 -20.609375 C 27.6875 -21.679688 27.265625 -22.640625 26.703125 -23.484375 C 25.160156 -25.867188 22.960938 -27.0625 20.109375 -27.0625 C 16.984375 -27.0625 14.71875 -25.867188 13.3125 -23.484375 C 12.800781 -22.597656 12.429688 -21.59375 12.203125 -20.46875 C 12.015625 -19.675781 11.921875 -18.878906 11.921875 -18.078125 L 11.921875 0 L 2.109375 0 L 2.109375 -36.234375 L 11.921875 -36.234375 L 11.921875 -32.453125 C 14.203125 -34.929688 17.144531 -36.171875 20.75 -36.171875 C 26.03125 -36.265625 30.304688 -34.226562 33.578125 -30.0625 L 36.515625 -32.796875 C 39.273438 -35.046875 42.523438 -36.171875 46.265625 -36.171875 Z M 46.265625 -36.171875 "/></g></g></g><g fill="#50556e" fill-opacity="1"><g transform="translate(406.838959, 1069.784981)"><g><path d="M 36.875 -16.46875 C 36.914062 -15.488281 36.914062 -14.90625 36.875 -14.71875 L 10.515625 -14.796875 C 10.890625 -13.710938 11.566406 -12.679688 12.546875 -11.703125 C 14.367188 -9.972656 16.472656 -9.109375 18.859375 -9.109375 C 21.378906 -9.203125 23.476562 -10.09375 25.15625 -11.78125 L 25.4375 -12.0625 L 34.5625 -9.1875 C 32.550781 -6.050781 30.445312 -3.804688 28.25 -2.453125 C 25.769531 -0.859375 22.660156 -0.0390625 18.921875 0 C 13.972656 0.0390625 9.722656 -1.6875 6.171875 -5.1875 C 2.617188 -8.6875 0.816406 -12.9375 0.765625 -17.9375 C 0.722656 -22.894531 2.453125 -27.148438 5.953125 -30.703125 C 9.460938 -34.253906 13.71875 -36.050781 18.71875 -36.09375 C 23.664062 -36.144531 27.914062 -34.414062 31.46875 -30.90625 C 35.019531 -27.40625 36.820312 -23.15625 36.875 -18.15625 Z M 18.78125 -26.921875 C 16.300781 -26.921875 14.203125 -26.054688 12.484375 -24.328125 C 11.585938 -23.335938 10.953125 -22.351562 10.578125 -21.375 L 27.0625 -21.375 C 26.6875 -22.351562 26.03125 -23.359375 25.09375 -24.390625 C 23.320312 -26.078125 21.21875 -26.921875 18.78125 -26.921875 Z M 18.78125 -26.921875 "/></g></g></g><g fill="#50556e" fill-opacity="1"><g transform="translate(446.777823, 1069.784981)"><g/></g></g><g fill="#50556e" fill-opacity="1"><g transform="translate(467.308307, 1069.784981)"><g><path d="M 28.109375 -36.09375 L 28.109375 -26.28125 L 20.046875 -26.28125 L 20.046875 0 L 10.234375 0 L 10.234375 -26.28125 L 2.109375 -26.28125 L 2.109375 -36.09375 L 10.234375 -36.09375 L 10.234375 -48.71875 L 20.046875 -48.71875 L 20.046875 -36.09375 Z M 28.109375 -36.09375 "/></g></g></g><g fill="#50556e" fill-opacity="1"><g transform="translate(499.820144, 1069.784981)"><g><path d="M 18.71875 -36.09375 C 23.71875 -36.144531 27.96875 -34.414062 31.46875 -30.90625 C 35.019531 -27.351562 36.796875 -23.101562 36.796875 -18.15625 C 36.847656 -13.15625 35.117188 -8.898438 31.609375 -5.390625 C 28.109375 -1.835938 23.878906 -0.0390625 18.921875 0 C 13.921875 0.0390625 9.644531 -1.6875 6.09375 -5.1875 C 2.539062 -8.6875 0.765625 -12.9375 0.765625 -17.9375 C 0.722656 -22.9375 2.453125 -27.191406 5.953125 -30.703125 C 9.460938 -34.253906 13.71875 -36.050781 18.71875 -36.09375 Z M 25.09375 -11.78125 C 26.820312 -13.507812 27.6875 -15.609375 27.6875 -18.078125 C 27.6875 -20.515625 26.796875 -22.617188 25.015625 -24.390625 C 23.242188 -26.078125 21.144531 -26.921875 18.71875 -26.921875 C 16.28125 -26.921875 14.203125 -26.054688 12.484375 -24.328125 C 10.753906 -22.503906 9.890625 -20.398438 9.890625 -18.015625 C 9.890625 -15.585938 10.773438 -13.484375 12.546875 -11.703125 C 14.273438 -9.972656 16.378906 -9.109375 18.859375 -9.109375 C 21.378906 -9.203125 23.457031 -10.09375 25.09375 -11.78125 Z M 25.09375 -11.78125 "/></g></g></g><g fill="#50556e" fill-opacity="1"><g transform="translate(539.688925, 1069.784981)"><g/></g></g><g fill="#50556e" fill-opacity="1"><g transform="translate(560.219409, 1069.784981)"><g><path d="M 46.265625 -36.171875 C 51.117188 -36.210938 55.066406 -34.765625 58.109375 -31.828125 C 61.378906 -28.742188 63.015625 -24.421875 63.015625 -18.859375 L 63.015625 0 L 53.90625 0 L 53.90625 -18.21875 C 53.90625 -18.925781 53.785156 -19.722656 53.546875 -20.609375 C 53.222656 -21.679688 52.78125 -22.640625 52.21875 -23.484375 C 50.726562 -25.867188 48.53125 -27.0625 45.625 -27.0625 C 42.539062 -27.0625 40.300781 -25.867188 38.90625 -23.484375 C 38.382812 -22.597656 38.007812 -21.59375 37.78125 -20.46875 C 37.59375 -19.675781 37.5 -18.878906 37.5 -18.078125 L 37.5 0 L 28.3125 0 L 28.3125 -18.21875 C 28.3125 -18.925781 28.195312 -19.722656 27.96875 -20.609375 C 27.6875 -21.679688 27.265625 -22.640625 26.703125 -23.484375 C 25.160156 -25.867188 22.960938 -27.0625 20.109375 -27.0625 C 16.984375 -27.0625 14.71875 -25.867188 13.3125 -23.484375 C 12.800781 -22.597656 12.429688 -21.59375 12.203125 -20.46875 C 12.015625 -19.675781 11.921875 -18.878906 11.921875 -18.078125 L 11.921875 0 L 2.109375 0 L 2.109375 -36.234375 L 11.921875 -36.234375 L 11.921875 -32.453125 C 14.203125 -34.929688 17.144531 -36.171875 20.75 -36.171875 C 26.03125 -36.265625 30.304688 -34.226562 33.578125 -30.0625 L 36.515625 -32.796875 C 39.273438 -35.046875 42.523438 -36.171875 46.265625 -36.171875 Z M 46.265625 -36.171875 "/></g></g></g><g fill="#50556e" fill-opacity="1"><g transform="translate(627.624245, 1069.784981)"><g><path d="M 36.09375 -36.171875 L 21.875 1.609375 C 20.332031 5.347656 17.878906 8.316406 14.515625 10.515625 C 11.148438 12.710938 7.476562 13.765625 3.5 13.671875 L 3.5 3.859375 C 4.945312 3.898438 6.394531 3.59375 7.84375 2.9375 C 9.90625 2.007812 11.453125 0.539062 12.484375 -1.46875 L 14.4375 -6.875 L 2.109375 -36.171875 L 12.890625 -36.171875 L 19.421875 -20.390625 L 25.234375 -36.171875 Z M 36.09375 -36.171875 "/></g></g></g><g fill="#50556e" fill-opacity="1"><g transform="translate(668.193708, 1069.784981)"><g/></g></g><g fill="#50556e" fill-opacity="1"><g transform="translate(688.724192, 1069.784981)"><g><path d="M 11.921875 -48.71875 L 11.921875 0 L 2.109375 0 L 2.109375 -48.71875 Z M 11.921875 -48.71875 "/></g></g></g><g fill="#50556e" fill-opacity="1"><g transform="translate(705.050691, 1069.784981)"><g><path d="M 11.84375 -48.859375 L 11.84375 -40.578125 L 2.109375 -40.578125 L 2.109375 -48.859375 Z M 11.921875 -36.03125 L 11.921875 0 L 2.109375 0 L 2.109375 -36.03125 Z M 11.921875 -36.03125 "/></g></g></g><g fill="#50556e" fill-opacity="1"><g transform="translate(721.37719, 1069.784981)"><g><path d="M 28.109375 -36.09375 L 28.109375 -26.28125 L 20.046875 -26.28125 L 20.046875 0 L 10.234375 0 L 10.234375 -26.28125 L 2.109375 -26.28125 L 2.109375 -36.09375 L 10.234375 -36.09375 L 10.234375 -48.71875 L 20.046875 -48.71875 L 20.046875 -36.09375 Z M 28.109375 -36.09375 "/></g></g></g><g fill="#50556e" fill-opacity="1"><g transform="translate(753.889027, 1069.784981)"><g><path d="M 28.109375 -36.09375 L 28.109375 -26.28125 L 20.046875 -26.28125 L 20.046875 0 L 10.234375 0 L 10.234375 -26.28125 L 2.109375 -26.28125 L 2.109375 -36.09375 L 10.234375 -36.09375 L 10.234375 -48.71875 L 20.046875 -48.71875 L 20.046875 -36.09375 Z M 28.109375 -36.09375 "/></g></g></g><g fill="#50556e" fill-opacity="1"><g transform="translate(786.400864, 1069.784981)"><g><path d="M 11.921875 -48.71875 L 11.921875 0 L 2.109375 0 L 2.109375 -48.71875 Z M 11.921875 -48.71875 "/></g></g></g><g fill="#50556e" fill-opacity="1"><g transform="translate(802.727363, 1069.784981)"><g><path d="M 36.875 -16.46875 C 36.914062 -15.488281 36.914062 -14.90625 36.875 -14.71875 L 10.515625 -14.796875 C 10.890625 -13.710938 11.566406 -12.679688 12.546875 -11.703125 C 14.367188 -9.972656 16.472656 -9.109375 18.859375 -9.109375 C 21.378906 -9.203125 23.476562 -10.09375 25.15625 -11.78125 L 25.4375 -12.0625 L 34.5625 -9.1875 C 32.550781 -6.050781 30.445312 -3.804688 28.25 -2.453125 C 25.769531 -0.859375 22.660156 -0.0390625 18.921875 0 C 13.972656 0.0390625 9.722656 -1.6875 6.171875 -5.1875 C 2.617188 -8.6875 0.816406 -12.9375 0.765625 -17.9375 C 0.722656 -22.894531 2.453125 -27.148438 5.953125 -30.703125 C 9.460938 -34.253906 13.71875 -36.050781 18.71875 -36.09375 C 23.664062 -36.144531 27.914062 -34.414062 31.46875 -30.90625 C 35.019531 -27.40625 36.820312 -23.15625 36.875 -18.15625 Z M 18.78125 -26.921875 C 16.300781 -26.921875 14.203125 -26.054688 12.484375 -24.328125 C 11.585938 -23.335938 10.953125 -22.351562 10.578125 -21.375 L 27.0625 -21.375 C 26.6875 -22.351562 26.03125 -23.359375 25.09375 -24.390625 C 23.320312 -26.078125 21.21875 -26.921875 18.78125 -26.921875 Z M 18.78125 -26.921875 "/></g></g></g><g fill="#50556e" fill-opacity="1"><g transform="translate(842.666191, 1069.784981)"><g/></g></g><g fill="#50556e" fill-opacity="1"><g transform="translate(863.196637, 1069.784981)"><g><path d="M 52.359375 -36.59375 L 32.734375 0 L 32.65625 -0.0625 L 26.359375 -11.84375 L 19.984375 0 L 19.984375 -0.0625 L 0.34375 -36.59375 L 10.4375 -36.59375 L 19.984375 -18.296875 L 21.375 -21.03125 L 13.03125 -36.59375 L 23.125 -36.59375 L 32.734375 -18.296875 L 42.265625 -36.59375 Z M 52.359375 -36.59375 "/></g></g></g><g fill="#50556e" fill-opacity="1"><g transform="translate(918.199732, 1069.784981)"><g><path d="M 18.71875 -36.09375 C 23.71875 -36.144531 27.96875 -34.414062 31.46875 -30.90625 C 35.019531 -27.351562 36.796875 -23.101562 36.796875 -18.15625 C 36.847656 -13.15625 35.117188 -8.898438 31.609375 -5.390625 C 28.109375 -1.835938 23.878906 -0.0390625 18.921875 0 C 13.921875 0.0390625 9.644531 -1.6875 6.09375 -5.1875 C 2.539062 -8.6875 0.765625 -12.9375 0.765625 -17.9375 C 0.722656 -22.9375 2.453125 -27.191406 5.953125 -30.703125 C 9.460938 -34.253906 13.71875 -36.050781 18.71875 -36.09375 Z M 25.09375 -11.78125 C 26.820312 -13.507812 27.6875 -15.609375 27.6875 -18.078125 C 27.6875 -20.515625 26.796875 -22.617188 25.015625 -24.390625 C 23.242188 -26.078125 21.144531 -26.921875 18.71875 -26.921875 C 16.28125 -26.921875 14.203125 -26.054688 12.484375 -24.328125 C 10.753906 -22.503906 9.890625 -20.398438 9.890625 -18.015625 C 9.890625 -15.585938 10.773438 -13.484375 12.546875 -11.703125 C 14.273438 -9.972656 16.378906 -9.109375 18.859375 -9.109375 C 21.378906 -9.203125 23.457031 -10.09375 25.09375 -11.78125 Z M 25.09375 -11.78125 "/></g></g></g><g fill="#50556e" fill-opacity="1"><g transform="translate(958.068514, 1069.784981)"><g><path d="M 11.921875 -30.703125 C 12.710938 -32.941406 14.039062 -34.503906 15.90625 -35.390625 C 17.726562 -36.285156 20.460938 -36.734375 24.109375 -36.734375 L 24.109375 -26.703125 C 20.554688 -26.703125 17.585938 -25.488281 15.203125 -23.0625 C 13.015625 -20.914062 11.921875 -18.554688 11.921875 -15.984375 L 11.921875 0 L 2.109375 0 L 2.109375 -36.09375 L 11.921875 -36.09375 Z M 11.921875 -30.703125 "/></g></g></g><g fill="#50556e" fill-opacity="1"><g transform="translate(985.535518, 1069.784981)"><g><path d="M 11.921875 -48.71875 L 11.921875 0 L 2.109375 0 L 2.109375 -48.71875 Z M 11.921875 -48.71875 "/></g></g></g><g fill="#50556e" fill-opacity="1"><g transform="translate(1001.862017, 1069.784981)"><g><path d="M 30.34375 0 L 30.34375 -4.140625 C 26.976562 -1.378906 23.171875 0 18.921875 0 C 13.972656 0.0390625 9.722656 -1.6875 6.171875 -5.1875 C 2.617188 -8.6875 0.816406 -12.9375 0.765625 -17.9375 C 0.722656 -22.894531 2.453125 -27.148438 5.953125 -30.703125 C 9.460938 -34.253906 13.71875 -36.050781 18.71875 -36.09375 C 23.0625 -36.09375 26.914062 -34.71875 30.28125 -31.96875 L 30.28125 -48.921875 L 40.09375 -48.921875 L 40.15625 0 Z M 25.15625 -11.78125 C 26.882812 -13.507812 27.75 -15.609375 27.75 -18.078125 C 27.65625 -20.609375 26.769531 -22.710938 25.09375 -24.390625 C 23.320312 -26.078125 21.21875 -26.921875 18.78125 -26.921875 C 16.300781 -26.921875 14.203125 -26.054688 12.484375 -24.328125 C 10.753906 -22.410156 9.910156 -20.304688 9.953125 -18.015625 C 9.953125 -15.535156 10.816406 -13.429688 12.546875 -11.703125 C 14.273438 -9.972656 16.378906 -9.109375 18.859375 -9.109375 C 21.378906 -9.203125 23.476562 -10.09375 25.15625 -11.78125 Z M 25.15625 -11.78125 "/></g></g></g></svg>