<svg xmlns="http://www.w3.org/2000/svg" xmlns:xlink="http://www.w3.org/1999/xlink" width="1920" zoomAndPan="magnify" viewBox="0 0 1440 809.999993" height="1080" preserveAspectRatio="xMidYMid meet" version="1.0"><defs><clipPath id="f905becfbf"><path d="M 30.746094 333.675781 L 461.828125 333.675781 L 461.828125 475.722656 L 30.746094 475.722656 Z M 30.746094 333.675781 " clip-rule="nonzero"/></clipPath><clipPath id="4ad9163d24"><path d="M 301.8125 333.675781 L 732.453125 333.675781 L 732.453125 475.722656 L 301.8125 475.722656 Z M 301.8125 333.675781 " clip-rule="nonzero"/></clipPath><clipPath id="fcaa9ef27a"><path d="M 700.039062 333.675781 L 1131.121094 333.675781 L 1131.121094 475.722656 L 700.039062 475.722656 Z M 700.039062 333.675781 " clip-rule="nonzero"/></clipPath><clipPath id="e8eb8a3045"><path d="M 978.609375 333.675781 L 1409.25 333.675781 L 1409.25 475.722656 L 978.609375 475.722656 Z M 978.609375 333.675781 " clip-rule="nonzero"/></clipPath></defs><g clip-path="url(#f905becfbf)"><path fill="#ffffff" d="M 426.5625 405.40625 C 425.972656 405.40625 425.382812 405.40625 424.808594 405.460938 C 420.566406 386.585938 403.628906 372.472656 383.367188 372.472656 C 363.109375 372.472656 345.632812 387.019531 341.722656 406.34375 C 339.25 405.753906 336.695312 405.425781 334.035156 405.425781 C 329.0625 405.425781 324.367188 406.566406 320.160156 408.554688 C 312.453125 393.921875 297.066406 383.941406 279.308594 383.941406 C 277.015625 383.941406 274.773438 384.113281 272.582031 384.425781 C 269.921875 356.003906 245.90625 333.773438 216.65625 333.773438 C 198.484375 333.773438 182.328125 342.371094 172.050781 355.691406 C 167.929688 354.480469 163.566406 353.824219 159.046875 353.824219 C 138.613281 353.824219 121.292969 367.058594 115.257812 385.394531 C 111.539062 384.425781 107.625 383.90625 103.609375 383.90625 C 78.148438 383.90625 57.527344 404.4375 57.527344 429.746094 C 57.527344 432.828125 57.839844 435.835938 58.414062 438.757812 C 55.910156 437.582031 53.125 436.925781 50.167969 436.925781 C 39.441406 436.925781 30.726562 445.574219 30.726562 456.265625 C 30.726562 466.957031 39.421875 475.605469 50.167969 475.605469 L 426.5625 475.605469 C 446.058594 475.605469 461.847656 459.898438 461.847656 440.507812 C 461.847656 421.113281 446.058594 405.40625 426.5625 405.40625 Z M 426.5625 405.40625 " fill-opacity="1" fill-rule="nonzero"/></g><g clip-path="url(#4ad9163d24)"><path fill="#ffffff" d="M 336.632812 405.40625 C 337.226562 405.40625 337.816406 405.40625 338.390625 405.460938 C 342.632812 386.585938 359.570312 372.472656 379.828125 372.472656 C 400.089844 372.472656 417.5625 387.019531 421.476562 406.34375 C 423.945312 405.753906 426.503906 405.425781 429.164062 405.425781 C 434.136719 405.425781 438.832031 406.566406 443.039062 408.554688 C 450.742188 393.921875 466.132812 383.941406 483.886719 383.941406 C 486.183594 383.941406 488.425781 384.113281 490.617188 384.425781 C 493.277344 356.003906 517.292969 333.773438 546.542969 333.773438 C 564.714844 333.773438 580.867188 342.371094 591.144531 355.691406 C 595.265625 354.480469 599.632812 353.824219 604.152344 353.824219 C 624.585938 353.824219 641.90625 367.058594 647.941406 385.394531 C 651.660156 384.425781 655.574219 383.90625 659.589844 383.90625 C 685.046875 383.90625 705.671875 404.4375 705.671875 429.746094 C 705.671875 432.828125 705.359375 435.835938 704.785156 438.757812 C 707.289062 437.582031 710.070312 436.925781 713.027344 436.925781 C 723.757812 436.925781 732.46875 445.574219 732.46875 456.265625 C 732.46875 466.957031 723.773438 475.605469 713.027344 475.605469 L 336.632812 475.605469 C 317.140625 475.605469 301.351562 459.898438 301.351562 440.507812 C 301.351562 421.113281 317.140625 405.40625 336.632812 405.40625 Z M 336.632812 405.40625 " fill-opacity="1" fill-rule="nonzero"/></g><g clip-path="url(#fcaa9ef27a)"><path fill="#ffffff" d="M 1095.855469 405.40625 C 1095.265625 405.40625 1094.675781 405.40625 1094.101562 405.460938 C 1089.859375 386.585938 1072.921875 372.472656 1052.660156 372.472656 C 1032.402344 372.472656 1014.925781 387.019531 1011.015625 406.34375 C 1008.542969 405.753906 1005.988281 405.425781 1003.328125 405.425781 C 998.355469 405.425781 993.660156 406.566406 989.449219 408.554688 C 981.746094 393.921875 966.359375 383.941406 948.601562 383.941406 C 946.308594 383.941406 944.066406 384.113281 941.875 384.425781 C 939.214844 356.003906 915.199219 333.773438 885.949219 333.773438 C 867.777344 333.773438 851.621094 342.371094 841.34375 355.691406 C 837.222656 354.480469 832.859375 353.824219 828.335938 353.824219 C 807.90625 353.824219 790.585938 367.058594 784.550781 385.394531 C 780.828125 384.425781 776.917969 383.90625 772.898438 383.90625 C 747.441406 383.90625 726.816406 404.4375 726.816406 429.746094 C 726.816406 432.828125 727.132812 435.835938 727.707031 438.757812 C 725.199219 437.582031 722.417969 436.925781 719.460938 436.925781 C 708.734375 436.925781 700.019531 445.574219 700.019531 456.265625 C 700.019531 466.957031 708.714844 475.605469 719.460938 475.605469 L 1095.855469 475.605469 C 1115.351562 475.605469 1131.140625 459.898438 1131.140625 440.507812 C 1131.140625 421.113281 1115.351562 405.40625 1095.855469 405.40625 Z M 1095.855469 405.40625 " fill-opacity="1" fill-rule="nonzero"/></g><g clip-path="url(#e8eb8a3045)"><path fill="#ffffff" d="M 1013.433594 405.40625 C 1014.023438 405.40625 1014.613281 405.40625 1015.1875 405.460938 C 1019.433594 386.585938 1036.371094 372.472656 1056.628906 372.472656 C 1076.886719 372.472656 1094.363281 387.019531 1098.277344 406.34375 C 1100.746094 405.753906 1103.300781 405.425781 1105.960938 405.425781 C 1110.933594 405.425781 1115.628906 406.566406 1119.839844 408.554688 C 1127.542969 393.921875 1142.933594 383.941406 1160.6875 383.941406 C 1162.980469 383.941406 1165.226562 384.113281 1167.417969 384.425781 C 1170.078125 356.003906 1194.089844 333.773438 1223.339844 333.773438 C 1241.511719 333.773438 1257.667969 342.371094 1267.945312 355.691406 C 1272.066406 354.480469 1276.429688 353.824219 1280.953125 353.824219 C 1301.382812 353.824219 1318.703125 367.058594 1324.738281 385.394531 C 1328.460938 384.425781 1332.371094 383.90625 1336.390625 383.90625 C 1361.847656 383.90625 1382.472656 404.4375 1382.472656 429.746094 C 1382.472656 432.828125 1382.160156 435.835938 1381.585938 438.757812 C 1384.089844 437.582031 1386.871094 436.925781 1389.828125 436.925781 C 1400.554688 436.925781 1409.269531 445.574219 1409.269531 456.265625 C 1409.269531 466.957031 1400.574219 475.605469 1389.828125 475.605469 L 1013.433594 475.605469 C 993.9375 475.605469 978.148438 459.898438 978.148438 440.507812 C 978.148438 421.113281 993.9375 405.40625 1013.433594 405.40625 Z M 1013.433594 405.40625 " fill-opacity="1" fill-rule="nonzero"/></g></svg>